<?xml version="1.0" encoding="utf-8"?>
<!-- Generator: Adobe Illustrator 19.1.0, SVG Export Plug-In . SVG Version: 6.00 Build 0)  -->
<svg version="1.1" id="Ebene_1" xmlns="http://www.w3.org/2000/svg" xmlns:xlink="http://www.w3.org/1999/xlink" x="0px" y="0px"
	 viewBox="0 0 1200 300" style="enable-background:new 0 0 1200 300;" xml:space="preserve">
<style type="text/css">
	.st0{clip-path:url(#SVGID_2_);}
	.st1{clip-path:url(#SVGID_4_);fill:#0065BD;}
	.st2{clip-path:url(#SVGID_6_);}
	.st3{clip-path:url(#SVGID_8_);fill:#004A7E;}
	.st4{clip-path:url(#SVGID_10_);fill:#004A7E;}
	.st5{clip-path:url(#SVGID_10_);fill:#00528D;}
	.st6{clip-path:url(#SVGID_12_);fill:#005B98;}
	.st7{clip-path:url(#SVGID_12_);fill:#0065A8;}
	.st8{clip-path:url(#SVGID_12_);fill:#0068AD;}
	.st9{clip-path:url(#SVGID_14_);fill:#005B98;}
	.st10{clip-path:url(#SVGID_14_);fill:#006BB1;}
	.st11{clip-path:url(#SVGID_14_);fill:#006EB5;}
	.st12{clip-path:url(#SVGID_16_);fill:#005B96;}
	.st13{clip-path:url(#SVGID_16_);fill:#006BAF;}
	.st14{clip-path:url(#SVGID_16_);fill:#0070B7;}
	.st15{clip-path:url(#SVGID_18_);fill:#005B96;}
	.st16{clip-path:url(#SVGID_18_);fill:#006BAF;}
	.st17{clip-path:url(#SVGID_18_);fill:#006FB6;}
	.st18{clip-path:url(#SVGID_20_);fill:#005B96;}
	.st19{clip-path:url(#SVGID_20_);fill:#006BAF;}
	.st20{clip-path:url(#SVGID_20_);fill:#006FB6;}
	.st21{clip-path:url(#SVGID_22_);fill:#2979A7;}
	.st22{clip-path:url(#SVGID_22_);fill:#368DC3;}
	.st23{clip-path:url(#SVGID_22_);fill:#3892CB;}
	.st24{clip-path:url(#SVGID_24_);fill:#2979A7;}
	.st25{clip-path:url(#SVGID_24_);fill:#4697C8;}
	.st26{clip-path:url(#SVGID_26_);fill:#2979A7;}
	.st27{clip-path:url(#SVGID_26_);fill:#4697C8;}
	.st28{clip-path:url(#SVGID_28_);fill:#5787AE;}
	.st29{clip-path:url(#SVGID_28_);fill:#75A8D1;}
	.st30{clip-path:url(#SVGID_30_);fill:#5787AE;}
	.st31{clip-path:url(#SVGID_30_);fill:#7FACD3;}
	.st32{clip-path:url(#SVGID_32_);fill:#5787AE;}
	.st33{clip-path:url(#SVGID_32_);fill:#7FACD3;}
	.st34{clip-path:url(#SVGID_34_);fill:#6A93B7;}
	.st35{clip-path:url(#SVGID_34_);fill:#93BADC;}
	.st36{clip-path:url(#SVGID_36_);fill:#6A93B7;}
	.st37{clip-path:url(#SVGID_36_);fill:#98BEDF;}
	.st38{clip-path:url(#SVGID_38_);fill:#6A93B7;}
	.st39{clip-path:url(#SVGID_38_);fill:#98BEDF;}
	.st40{clip-path:url(#SVGID_40_);fill:#7F9CBB;}
	.st41{clip-path:url(#SVGID_40_);fill:#B4CCE4;}
	.st42{clip-path:url(#SVGID_40_);fill:#ADC9E3;}
	.st43{clip-path:url(#SVGID_40_);fill:#BFD9F0;}
	.st44{clip-path:url(#SVGID_40_);fill:#BDD8F0;}
	.st45{clip-path:url(#SVGID_42_);fill:#7F9CBB;}
	.st46{clip-path:url(#SVGID_42_);fill:#B4CCE4;}
	.st47{clip-path:url(#SVGID_42_);fill:#C6DCF1;}
	.st48{clip-path:url(#SVGID_42_);fill:#CAE1F5;}
	.st49{clip-path:url(#SVGID_42_);fill:#CBE2F6;}
	.st50{clip-path:url(#SVGID_42_);fill:#C3DBF1;}
	.st51{clip-path:url(#SVGID_42_);fill:#C8DFF5;}
	.st52{clip-path:url(#SVGID_42_);fill:#CAE1F6;}
	.st53{clip-path:url(#SVGID_44_);fill:#7F9CBB;}
	.st54{clip-path:url(#SVGID_44_);fill:#B4CCE4;}
	.st55{clip-path:url(#SVGID_44_);fill:#C6DCF1;}
	.st56{clip-path:url(#SVGID_44_);fill:#CAE1F5;}
	.st57{clip-path:url(#SVGID_44_);fill:#CBE2F6;}
	.st58{clip-path:url(#SVGID_46_);fill:#004A7E;}
	.st59{clip-path:url(#SVGID_48_);fill:#004A7E;}
	.st60{clip-path:url(#SVGID_48_);fill:#00528D;}
	.st61{clip-path:url(#SVGID_50_);fill:#005B98;}
	.st62{clip-path:url(#SVGID_50_);fill:#0065A8;}
	.st63{clip-path:url(#SVGID_50_);fill:#0068AD;}
	.st64{clip-path:url(#SVGID_52_);fill:#005B98;}
	.st65{clip-path:url(#SVGID_52_);fill:#006BB1;}
	.st66{clip-path:url(#SVGID_52_);fill:#006EB5;}
	.st67{clip-path:url(#SVGID_54_);fill:#005B96;}
	.st68{clip-path:url(#SVGID_54_);fill:#006BAF;}
	.st69{clip-path:url(#SVGID_54_);fill:#0070B7;}
	.st70{clip-path:url(#SVGID_56_);fill:#005B96;}
	.st71{clip-path:url(#SVGID_56_);fill:#006BAF;}
	.st72{clip-path:url(#SVGID_56_);fill:#006FB6;}
	.st73{clip-path:url(#SVGID_58_);fill:#005B96;}
	.st74{clip-path:url(#SVGID_58_);fill:#006BAF;}
	.st75{clip-path:url(#SVGID_58_);fill:#006FB6;}
	.st76{clip-path:url(#SVGID_60_);fill:#2979A7;}
	.st77{clip-path:url(#SVGID_60_);fill:#2B85BA;}
	.st78{clip-path:url(#SVGID_60_);fill:#368DC3;}
	.st79{clip-path:url(#SVGID_60_);fill:#3892CB;}
	.st80{clip-path:url(#SVGID_62_);fill:#2979A7;}
	.st81{clip-path:url(#SVGID_62_);fill:#2B85BA;}
	.st82{clip-path:url(#SVGID_62_);fill:#2B88BF;}
	.st83{clip-path:url(#SVGID_62_);fill:#268FC8;}
	.st84{clip-path:url(#SVGID_62_);fill:#2691CB;}
	.st85{clip-path:url(#SVGID_62_);fill:#2591CB;}
	.st86{clip-path:url(#SVGID_62_);fill:#2592CD;}
	.st87{clip-path:url(#SVGID_62_);fill:#4697C8;}
	.st88{clip-path:url(#SVGID_62_);fill:#479BCE;}
	.st89{clip-path:url(#SVGID_62_);fill:#4A9DD0;}
	.st90{clip-path:url(#SVGID_64_);fill:#2979A7;}
	.st91{clip-path:url(#SVGID_64_);fill:#278CC3;}
	.st92{clip-path:url(#SVGID_64_);fill:#2591CB;}
	.st93{clip-path:url(#SVGID_64_);fill:#368DC3;}
	.st94{clip-path:url(#SVGID_64_);fill:#3692CB;}
	.st95{clip-path:url(#SVGID_64_);fill:#3594CE;}
	.st96{clip-path:url(#SVGID_64_);fill:#3892CB;}
	.st97{clip-path:url(#SVGID_64_);fill:#3894CE;}
	.st98{clip-path:url(#SVGID_64_);fill:#3B94CE;}
	.st99{clip-path:url(#SVGID_64_);fill:#4697C8;}
	.st100{clip-path:url(#SVGID_64_);fill:#479BCE;}
	.st101{clip-path:url(#SVGID_64_);fill:#479DD0;}
	.st102{clip-path:url(#SVGID_64_);fill:#479ED2;}
	.st103{clip-path:url(#SVGID_64_);fill:#479ED3;}
	.st104{clip-path:url(#SVGID_64_);fill:#479FD4;}
	.st105{clip-path:url(#SVGID_64_);fill:#4B9ED3;}
	.st106{clip-path:url(#SVGID_64_);fill:#4BA0D5;}
	.st107{clip-path:url(#SVGID_64_);fill:#50A0D2;}
	.st108{clip-path:url(#SVGID_66_);fill:#5787AE;}
	.st109{clip-path:url(#SVGID_66_);fill:#6CA3D4;}
	.st110{clip-path:url(#SVGID_66_);fill:#6EA5D6;}
	.st111{clip-path:url(#SVGID_66_);fill:#75A8D1;}
	.st112{clip-path:url(#SVGID_66_);fill:#7AAFDA;}
	.st113{clip-path:url(#SVGID_66_);fill:#7BB0DC;}
	.st114{clip-path:url(#SVGID_66_);fill:#7DB2DB;}
	.st115{clip-path:url(#SVGID_66_);fill:#7FB4DE;}
	.st116{clip-path:url(#SVGID_66_);fill:#78AEDA;}
	.st117{clip-path:url(#SVGID_66_);fill:#7CB2DE;}
	.st118{clip-path:url(#SVGID_66_);fill:#7FB5DF;}
	.st119{clip-path:url(#SVGID_68_);fill:#5787AE;}
	.st120{clip-path:url(#SVGID_68_);fill:#75A8D1;}
	.st121{clip-path:url(#SVGID_68_);fill:#7DB2DB;}
	.st122{clip-path:url(#SVGID_68_);fill:#80B5DE;}
	.st123{clip-path:url(#SVGID_68_);fill:#7FACD3;}
	.st124{clip-path:url(#SVGID_68_);fill:#89B7DE;}
	.st125{clip-path:url(#SVGID_68_);fill:#8CBBE1;}
	.st126{clip-path:url(#SVGID_68_);fill:#8CBBE2;}
	.st127{clip-path:url(#SVGID_68_);fill:#8CB9DE;}
	.st128{clip-path:url(#SVGID_68_);fill:#8FBCE2;}
	.st129{clip-path:url(#SVGID_68_);fill:#8BBAE1;}
	.st130{clip-path:url(#SVGID_70_);fill:#5787AE;}
	.st131{clip-path:url(#SVGID_70_);fill:#75A8D1;}
	.st132{clip-path:url(#SVGID_70_);fill:#7DB2DB;}
	.st133{clip-path:url(#SVGID_70_);fill:#7FACD3;}
	.st134{clip-path:url(#SVGID_70_);fill:#89B7DE;}
	.st135{clip-path:url(#SVGID_70_);fill:#8CB9DE;}
	.st136{clip-path:url(#SVGID_70_);fill:#8FBCE2;}
	.st137{clip-path:url(#SVGID_70_);fill:#90BDE2;}
	.st138{clip-path:url(#SVGID_70_);fill:#8CBBE1;}
	.st139{clip-path:url(#SVGID_70_);fill:#90BEE3;}
	.st140{clip-path:url(#SVGID_70_);fill:#91BEE3;}
	.st141{clip-path:url(#SVGID_72_);fill:#6A93B7;}
	.st142{clip-path:url(#SVGID_72_);fill:#93BADC;}
	.st143{clip-path:url(#SVGID_72_);fill:#A0C7E8;}
	.st144{clip-path:url(#SVGID_72_);fill:#98BEDF;}
	.st145{clip-path:url(#SVGID_72_);fill:#A6CCEB;}
	.st146{clip-path:url(#SVGID_72_);fill:#AACFEE;}
	.st147{clip-path:url(#SVGID_72_);fill:#A3CAEB;}
	.st148{clip-path:url(#SVGID_72_);fill:#A5CBEC;}
	.st149{clip-path:url(#SVGID_72_);fill:#A1C8E9;}
	.st150{clip-path:url(#SVGID_72_);fill:#A6CCEC;}
	.st151{clip-path:url(#SVGID_72_);fill:#A7CDED;}
	.st152{clip-path:url(#SVGID_74_);fill:#6A93B7;}
	.st153{clip-path:url(#SVGID_74_);fill:#9FC1E0;}
	.st154{clip-path:url(#SVGID_74_);fill:#93BADC;}
	.st155{clip-path:url(#SVGID_74_);fill:#98BEDF;}
	.st156{clip-path:url(#SVGID_74_);fill:#A6CCEB;}
	.st157{clip-path:url(#SVGID_74_);fill:#A7CCEC;}
	.st158{clip-path:url(#SVGID_74_);fill:#AACDEC;}
	.st159{clip-path:url(#SVGID_74_);fill:#ABD0EF;}
	.st160{clip-path:url(#SVGID_76_);fill:#6A93B7;}
	.st161{clip-path:url(#SVGID_76_);fill:#98BEDF;}
	.st162{clip-path:url(#SVGID_76_);fill:#A7CCEC;}
	.st163{clip-path:url(#SVGID_76_);fill:#9FC1E0;}
	.st164{clip-path:url(#SVGID_76_);fill:#B0D1ED;}
	.st165{clip-path:url(#SVGID_76_);fill:#B5D5F1;}
	.st166{clip-path:url(#SVGID_76_);fill:#B6D7F2;}
	.st167{clip-path:url(#SVGID_76_);fill:#AED0ED;}
	.st168{clip-path:url(#SVGID_76_);fill:#B3D4F1;}
	.st169{clip-path:url(#SVGID_76_);fill:#B5D6F2;}
	.st170{clip-path:url(#SVGID_76_);fill:#B2D4F1;}
	.st171{clip-path:url(#SVGID_76_);fill:#B7D7F3;}
	.st172{clip-path:url(#SVGID_76_);fill:#B6D6F2;}
	.st173{clip-path:url(#SVGID_76_);fill:#AACDEC;}
	.st174{clip-path:url(#SVGID_76_);fill:#ABD0EF;}
	.st175{clip-path:url(#SVGID_76_);fill:#ACD1EF;}
	.st176{clip-path:url(#SVGID_76_);fill:#ADD2F1;}
	.st177{clip-path:url(#SVGID_76_);fill:#AED2F0;}
	.st178{clip-path:url(#SVGID_76_);fill:#AFD3F1;}
	.st179{clip-path:url(#SVGID_76_);fill:#B0D4F2;}
	.st180{fill:#A0AF00;}
	.st181{fill:#EC751A;}
	.st182{fill:#0072BA;}
	.st183{clip-path:url(#SVGID_78_);fill:#0065BD;}
</style>
<g id="dare2share">
	<g>
		<defs>
			<rect id="SVGID_1_" x="25" y="25" width="250" height="250"/>
		</defs>
		<clipPath id="SVGID_2_">
			<use xlink:href="#SVGID_1_"  style="overflow:visible;"/>
		</clipPath>
		<g class="st0">
			<defs>
				<rect id="SVGID_3_" x="25" y="25" width="250" height="250"/>
			</defs>
			<clipPath id="SVGID_4_">
				<use xlink:href="#SVGID_3_"  style="overflow:visible;"/>
			</clipPath>
			<path class="st1" d="M145.3,144.5l-33.1,36.1c-0.9,0.9-2.6,1.6-4.2,1.6c-3.4,0-6.2-2.8-6.2-6.2c0-1.4,0.4-2.7,1.2-3.7
				c0.9-1.1,1.4-2.6,1.4-4.1c0-3.5-2.9-6.5-6.4-6.5c-1.8,0-3.8,1-5.2,2.9c-2.1,2.6-3.8,6.7-3.8,11.4c0,10.5,8.5,18.9,18.9,18.9
				c5.3,0,10.2-2.2,13.6-5.7l33.1-36.1L145.3,144.5z"/>
			<path class="st1" d="M147.2,83.8c-18.4,0-35.1,7.3-47.3,19.1l100.4,91.7c9.4-11.7,15-26.5,15-42.7
				C215.3,114.3,184.8,83.8,147.2,83.8 M198.2,177.1l-80.6-73.7c8.5-5.1,18.5-8,29.1-8c31.5,0,57,25.5,57,57
				C203.8,161.3,201.8,169.6,198.2,177.1"/>
			<path class="st1" d="M268.9,160.2l-4.8-10.2l-5.7,8.2l-8,11.5l6.5,0.6c-9.5,50.4-53.8,88.5-106.9,88.5
				c-47,0-87.1-29.8-102.3-71.6l-10.1,3.5c16.7,45.9,60.7,78.7,112.3,78.7c58.8,0,107.6-42.4,117.6-98.3l6.9,0.6L268.9,160.2z"/>
			<path class="st1" d="M149.8,30.5c-58.7,0-107.6,42.4-117.6,98.3l-6.6-0.6l5.2,11l5.1,10.8l1.6-2.3l3.8-5.4l8.4-12l-6.8-0.6
				c9.5-50.4,53.8-88.5,106.9-88.5c47.9,0,88.6,30.9,103.1,73.9l10.1-3.5C247,64.4,202.4,30.5,149.8,30.5"/>
		</g>
	</g>
</g>
<g id="TUM_Junge_Akademie">
	<g>
		<defs>
			<rect id="SVGID_5_" x="325" y="52.3" width="250" height="195.5"/>
		</defs>
		<clipPath id="SVGID_6_">
			<use xlink:href="#SVGID_5_"  style="overflow:visible;"/>
		</clipPath>
		<g class="st2">
			<defs>
				<rect id="SVGID_7_" x="448.2" y="165.8" width="87.5" height="36.9"/>
			</defs>
			<clipPath id="SVGID_8_">
				<use xlink:href="#SVGID_7_"  style="overflow:visible;"/>
			</clipPath>
			<path class="st3" d="M484,177.4c0.1,0.1,0.2,0.2,0.2,0.2c0.4,0.3,4.3,3.9,6.3,7.2c1.9,0.9,3.5,1.7,4.7,2.2
				c6.8,3.2,17,8.8,18.7,9.3c1.2,0.4,8.4,4.2,12.5,6.3c4.8-0.1,7.8-2.6,9.1-3.9c1.6-1.6-4.2-3.4-4.7-3.5c-0.5-0.1-13.2-7.1-14.9-7.5
				c-1.7-0.4-12.2-5.4-19.3-8.2c-0.7-0.3-1.6-0.6-2.6-1c-0.1,0-0.3,0-0.4,0c-0.7,0-1.5,0-2.3-0.1C488.5,178.3,486.4,178,484,177.4"
				/>
		</g>
		<g class="st2">
			<defs>
				<rect id="SVGID_9_" x="443.7" y="166.4" width="92.8" height="46.4"/>
			</defs>
			<clipPath id="SVGID_10_">
				<use xlink:href="#SVGID_9_"  style="overflow:visible;"/>
			</clipPath>
			<path class="st4" d="M493,193.6c6.2,3.8,13.7,8.8,15,9.4c1.6,0.7,14.1,9,14.6,9.2c0.1,0,0.2,0.1,0.5,0.3c1.2,0.1,2.4,0.2,3.6,0.2
				c4.5,0,8.4-1,9.5-2c0.2-0.1,0.2-0.3,0.2-0.5v0c0-1.9-6.8-6-7.3-6.1c-0.1,0-1.3-0.6-2.9-1.5c-0.1,0-0.2,0-0.3,0h-0.1
				c-1.2,0-2.4-0.2-3.8-0.5c-3.8-0.9-7.1-2-8.8-2.5C512.2,199.5,502.2,196.8,493,193.6"/>
			<path class="st5" d="M490.4,184.8c1,1.6,1.6,3.2,1.1,4.1c-0.5,0.8-1.2,1.7-2.2,2.5c0.4,0.2,0.7,0.4,1,0.6
				c0.9,0.5,1.8,1.1,2.7,1.6c9.1,3.1,19.1,5.8,20.2,6.1c1.7,0.4,5,1.5,8.8,2.5c1.4,0.3,2.6,0.5,3.8,0.5h0.1c0.1,0,0.2,0,0.3,0
				c-4.1-2.2-11.3-6-12.5-6.3c-1.7-0.5-11.9-6.1-18.7-9.3C493.9,186.4,492.3,185.7,490.4,184.8"/>
		</g>
		<g class="st2">
			<defs>
				<rect id="SVGID_11_" x="437.8" y="167.6" width="91.6" height="54.3"/>
			</defs>
			<clipPath id="SVGID_12_">
				<use xlink:href="#SVGID_11_"  style="overflow:visible;"/>
			</clipPath>
			<path class="st6" d="M482.3,197c0.2,0.2,0.4,0.3,0.6,0.5c6,4.5,14.9,12,16.4,12.9c0.9,0.5,5.6,4.3,9.2,7.2c2.1,1,4.4,2.2,6.3,3
				c2.3,0.9,4.4,1.3,6.2,1.3h0c3.8,0,6.6-1.5,7.9-2.4c1.7-1.2-4.2-5.8-5.9-7c-1.4-0.2-2.8-0.5-4.1-0.9c-3.8-1.2-6.3-2.2-8-2.7
				C509.5,208.5,491,201.6,482.3,197"/>
			<path class="st7" d="M488.4,192c-1.6,1-3.8,1.6-6.6,1.6c-1.4,0-3-0.2-4.8-0.5c2.1,1.5,4,2.9,5.4,4c8.7,4.5,27.1,11.5,28.7,12
				c1.7,0.5,4.2,1.5,8,2.7c1.4,0.4,2.8,0.7,4.1,0.9c-0.2-0.2-0.4-0.3-0.5-0.3c-0.5-0.2-13-8.5-14.6-9.2c-1.4-0.6-8.9-5.6-15-9.4
				C491.4,193.1,489.9,192.6,488.4,192"/>
			<path class="st8" d="M489.3,191.4c-0.3,0.2-0.6,0.4-0.9,0.6c1.5,0.6,3,1.1,4.6,1.6c-0.9-0.6-1.8-1.1-2.7-1.6
				C490,191.8,489.7,191.6,489.3,191.4"/>
		</g>
		<g class="st2">
			<defs>
				<rect id="SVGID_13_" x="433.3" y="167.8" width="82.5" height="59.9"/>
			</defs>
			<clipPath id="SVGID_14_">
				<use xlink:href="#SVGID_13_"  style="overflow:visible;"/>
			</clipPath>
			<path class="st9" d="M473.7,198.8c0.3,0.3,0.5,0.5,0.8,0.7c5.6,5.1,13.3,14.1,14.7,15.1c0.8,0.6,4.2,4.7,6.9,8.1
				c0.3,0.2,0.8,0.4,1.4,0.8c5.3,3.2,9.5,4.1,12.6,4.1h0.1c2.4,0,4.1-0.6,5-1.1c0.4-0.2,0.6-0.6,0.6-1v0c0-1.6-2.6-4.3-2.9-4.5
				c-0.2-0.1-2-1.6-4.3-3.5c-2-1-3.7-1.9-4.5-2.2c-1.6-0.7-21.6-10.4-28.9-15.6C474.7,199.5,474.2,199.2,473.7,198.8"/>
			<path class="st10" d="M468.7,190.9c1,1.8,2,3.7,2.4,5.3c1,1,1.9,1.9,2.7,2.6c0.5,0.3,1,0.7,1.5,1c7.3,5.1,27.3,14.9,28.9,15.6
				c0.8,0.3,2.5,1.2,4.5,2.2c-3.6-2.9-8.3-6.7-9.2-7.2c-1.5-0.8-10.4-8.4-16.4-12.9c-0.2-0.1-0.4-0.3-0.6-0.5
				c-0.6-0.3-1.1-0.6-1.6-0.9c-2.4-1.4-5.1-2.7-7.6-4C471.6,191.9,470.2,191.5,468.7,190.9"/>
			<path class="st11" d="M473.1,192.2c2.5,1.2,5.2,2.6,7.6,4c0.5,0.3,1,0.6,1.6,0.9c-1.4-1-3.3-2.4-5.4-4c-0.2,0-0.4-0.1-0.6-0.1
				C475.2,192.7,474.1,192.5,473.1,192.2"/>
		</g>
		<g class="st2">
			<defs>
				<rect id="SVGID_15_" x="429.4" y="167.2" width="71.5" height="66.8"/>
			</defs>
			<clipPath id="SVGID_16_">
				<use xlink:href="#SVGID_15_"  style="overflow:visible;"/>
			</clipPath>
			<path class="st12" d="M471.2,208.2c2.9,3.7,5.4,7,6.2,7.7c1.3,1.2,6.7,11.4,7.1,11.8c0.2,0.2,0.9,1.3,1.6,2.7
				c4,2.8,6.9,3.6,9.1,3.6c2.3,0,3.7-0.9,4.7-1.3c2.1-0.9,0.4-4.9,0-5.2c-0.2-0.1-1.8-2.2-3.8-4.6c-0.5-0.2-0.8-0.3-0.9-0.3
				c-0.1,0-0.1,0-0.2,0c-0.1,0-0.1,0-0.2,0c-0.1,0-0.3-0.1-0.7-0.3C492.9,221.6,480.2,214.3,471.2,208.2"/>
			<path class="st13" d="M471.2,197.1c0.1,0.7,0,1.3-0.3,1.7c-1,1.2-2.5,2.4-4.7,3.1c1.7,2.1,3.4,4.3,5,6.3c9,6.1,21.7,13.4,22.9,14
				c0.4,0.2,0.6,0.3,0.7,0.3c0.1,0,0.1,0,0.2,0c0.1,0,0.1,0,0.2,0c0.2,0,0.4,0.1,0.9,0.3c-2.7-3.4-6.1-7.6-6.9-8.1
				c-1.4-1-9.1-10-14.7-15.1c-0.2-0.2-0.5-0.5-0.8-0.7C472.9,198.3,472.1,197.7,471.2,197.1"/>
			<path class="st14" d="M471.1,196.2c0.1,0.3,0.1,0.7,0.2,1c0.8,0.6,1.7,1.1,2.5,1.7C472.9,198.1,472,197.2,471.1,196.2"/>
		</g>
		<g class="st2">
			<defs>
				<rect id="SVGID_17_" x="425.8" y="166" width="61.5" height="70.9"/>
			</defs>
			<clipPath id="SVGID_18_">
				<use xlink:href="#SVGID_17_"  style="overflow:visible;"/>
			</clipPath>
			<path class="st15" d="M464.8,214.6c3.9,8.5,8.3,19.3,8.5,19.6c0,0,0,0,0,0c0.7,0.4,1.4,0.8,1.9,1c3.1,1.2,5.6,1.8,7.6,1.8
				c2,0,3.4-0.5,4.1-1.4c0.2-0.3,0.3-0.7,0.3-1.2v-0.1c0-1.1-0.6-2.6-1.2-3.8c-0.3-0.2-0.7-0.5-1-0.7c-3.2-2.3-7.8-5-9.3-6
				C475,223.1,470,219.1,464.8,214.6"/>
			<path class="st16" d="M457.6,201.5c1.2,2,2.2,3.7,3,4.9c1.2,1.8,2.7,4.8,4.2,8.2c5.2,4.5,10.2,8.5,11,9.1c1.4,1,6.1,3.7,9.3,6
				c0.3,0.3,0.7,0.5,1,0.7c-0.7-1.4-1.4-2.5-1.6-2.7c-0.4-0.4-5.8-10.6-7.1-11.8c-0.8-0.8-3.3-4-6.2-7.7c-2.9-2-5.4-3.8-7.1-5.2
				c-0.3-0.2-0.5-0.5-0.8-0.7c-0.1,0-0.3,0-0.4,0C461.4,202.3,459.6,202,457.6,201.5"/>
			<path class="st17" d="M466.2,201.9c-0.8,0.2-1.8,0.4-2.8,0.4c0.3,0.2,0.5,0.5,0.8,0.7c1.6,1.4,4.2,3.3,7.1,5.2
				C469.6,206.1,467.9,203.9,466.2,201.9"/>
		</g>
		<g class="st2">
			<defs>
				<rect id="SVGID_19_" x="423.1" y="165.6" width="51.2" height="76.3"/>
			</defs>
			<clipPath id="SVGID_20_">
				<use xlink:href="#SVGID_19_"  style="overflow:visible;"/>
			</clipPath>
			<path class="st18" d="M451.3,214.6c1.7,6.2,3.4,14.2,4.4,19c2.8,2.5,6.1,5.5,8.1,6.5c2.4,1.3,4.2,1.8,5.6,1.8c2,0,3.1-1,4.1-1.9
				c1.6-1.6,0.1-5.4-0.3-5.8c-4-2.5-9.9-7.7-11-8.7C461.5,224.7,456.3,219.9,451.3,214.6"/>
			<path class="st19" d="M452.3,202.5c0.1,2.4-0.6,4.5-2.7,5.8c-0.1,0-0.2,0.1-0.2,0.2c0.6,1.6,1.2,3.7,1.9,6.1
				c5,5.3,10.2,10.1,11,10.9c1.1,1,7,6.3,11,8.7c0,0,0,0,0,0c-0.2-0.3-4.6-11.1-8.5-19.6c-3.7-3.2-7.5-6.7-10.1-9.4
				C453.9,204.3,453.1,203.4,452.3,202.5"/>
			<path class="st20" d="M451.8,199.1c0.3,1.1,0.5,2.3,0.5,3.4c0.8,0.9,1.6,1.8,2.4,2.6c2.5,2.7,6.4,6.2,10.1,9.4
				c-1.6-3.4-3.1-6.4-4.2-8.2c-0.8-1.2-1.8-2.9-3-4.9c-0.7-0.2-1.5-0.5-2.3-0.8C454.2,200.2,453,199.7,451.8,199.1"/>
		</g>
		<g class="st2">
			<defs>
				<rect id="SVGID_21_" x="421" y="165.7" width="36" height="78.8"/>
			</defs>
			<clipPath id="SVGID_22_">
				<use xlink:href="#SVGID_21_"  style="overflow:visible;"/>
			</clipPath>
			<path class="st21" d="M437.9,210.3c1.3,9.3,2.2,25.3,2.4,27.2c1.1,1.3,2.3,2.3,3.7,3.5c3.2,2.6,6.3,3.5,8.6,3.5
				c1.3,0,2.4-0.3,3.1-0.8c1-0.7,1.3-2.3,1.3-3.7v0c0-1.3-0.2-2.4-0.3-2.6c-0.1-0.1-0.4-1.6-0.9-3.9c-2.1-1.9-3.9-3.6-4.4-4.1
				c-3.7-3.2-6.8-10.8-10-17.8C440.3,211.4,439.2,211,437.9,210.3"/>
			<path class="st22" d="M447.4,210.2c-1.1,0.9-2.3,1.7-4.1,1.7c-0.6,0-1.2-0.1-2-0.3c3.2,7,6.3,14.6,10,17.8
				c0.6,0.5,2.3,2.2,4.4,4.1c-1-4.7-2.8-12.7-4.4-19C449.9,213.1,448.6,211.7,447.4,210.2"/>
			<path class="st23" d="M449.4,208.5c-0.7,0.5-1.4,1.1-2.1,1.7c1.2,1.4,2.6,2.9,3.9,4.4C450.6,212.2,450,210.1,449.4,208.5"/>
		</g>
		<g class="st2">
			<defs>
				<rect id="SVGID_23_" x="418.7" y="165.3" width="22.3" height="82.5"/>
			</defs>
			<clipPath id="SVGID_24_">
				<use xlink:href="#SVGID_23_"  style="overflow:visible;"/>
			</clipPath>
			<path class="st24" d="M430,215.8c-0.6,0.2-1.3,0.4-2,0.4h-0.1c-0.2,0-0.4,0-0.6,0c-0.2,8.4-0.7,17.5-1.1,19
				c-0.1,0.2,0,2.1-0.2,4.1c1.1,1.6,2.2,2.7,3.6,4.2c3,3.2,5.6,4.2,7.7,4.2h0c1,0,1.9-0.2,2.6-0.6c2.1-1,0.5-8.9,0.3-9.4
				c0,0,0-0.1,0-0.2c-1.2-1.4-2.5-3.3-4.3-6.1C433.1,226.7,431.3,221.3,430,215.8"/>
			<path class="st25" d="M436.4,209.6c-0.6,2.1-1.8,4.2-4.4,5.4c-0.7,0.3-1.4,0.7-2,0.9c1.3,5.5,3.2,10.9,6,15.6
				c1.8,2.9,3,4.7,4.3,6.1c-0.2-1.9-1.1-17.9-2.4-27.2c-0.2-0.1-0.5-0.2-0.7-0.4C436.9,209.8,436.7,209.7,436.4,209.6"/>
		</g>
		<g class="st2">
			<defs>
				<rect id="SVGID_25_" x="409.2" y="164.6" width="18.2" height="80.4"/>
			</defs>
			<clipPath id="SVGID_26_">
				<use xlink:href="#SVGID_25_"  style="overflow:visible;"/>
			</clipPath>
			<path class="st26" d="M420,217.5c-0.5,0.2-1,0.5-1.5,0.7c-0.4,0.2-0.9,0.3-1.5,0.4c-1,6.6-2.2,12.6-2.7,13.8
				c-0.1,0.2-0.4,2.7-1.3,5c0.4,0.8,0.9,1.6,1.4,2.3c2.9,4.1,5.7,5.3,7.9,5.3c0.7,0,1.3-0.1,1.8-0.3c1.2-0.4,1.7-3,1.9-5.4
				c-1-1.4-2-3.2-3.2-6C420.9,228.7,420.2,223.2,420,217.5"/>
			<path class="st27" d="M423.2,214.7c-0.5,1-1.4,2-3.1,2.8c0.2,5.6,0.9,11.2,2.8,15.8c1.2,2.8,2.2,4.6,3.2,6c0.2-2,0.1-3.9,0.2-4.1
				c0.4-1.5,0.9-10.6,1.1-19C426.2,216.1,424.9,215.6,423.2,214.7"/>
		</g>
		<g class="st2">
			<defs>
				<rect id="SVGID_27_" x="398.7" y="164.2" width="20.9" height="77.9"/>
			</defs>
			<clipPath id="SVGID_28_">
				<use xlink:href="#SVGID_27_"  style="overflow:visible;"/>
			</clipPath>
			<path class="st28" d="M407.6,217.5c-2,7.4-4.3,14.7-4.9,16c-0.1,0.3-1,2.4-2.7,3.9c0.1,0.2,0.2,0.3,0.2,0.5
				c1.8,3.5,3.5,4.2,5,4.2h0.1c0.4,0,0.9-0.1,1.3-0.1c0.4-0.1,0.9-0.1,1.3-0.1c0.1,0,0.2,0,0.2,0c0.1,0,0.1,0,0.2,0
				c2.4,0,3.9-2.2,4.7-4.5c-1.5-2.9-2.7-6.6-3.2-11.6c-0.3-2.8-0.4-5.3-0.5-7.6C408.7,218.1,408.2,217.8,407.6,217.5"/>
			<path class="st29" d="M409.3,218.3c0.1,2.3,0.3,4.8,0.5,7.6c0.5,5,1.6,8.7,3.2,11.6c0.9-2.3,1.2-4.8,1.3-5
				c0.5-1.2,1.6-7.2,2.7-13.8c-0.9,0.2-2.1,0.4-3.3,0.4h0C412.3,219,410.8,218.8,409.3,218.3"/>
		</g>
		<g class="st2">
			<defs>
				<rect id="SVGID_29_" x="388.6" y="165.2" width="24.1" height="73.6"/>
			</defs>
			<clipPath id="SVGID_30_">
				<use xlink:href="#SVGID_29_"  style="overflow:visible;"/>
			</clipPath>
			<path class="st30" d="M396.7,221.1c-2.1,5.8-4.2,10.9-4.8,11.9c-0.2,0.3-0.4,1.4-1.6,2.1c1.7,3.3,3.1,3.3,5,3.6
				c0.3,0.1,0.6,0.1,0.9,0.1h0.1c1.5,0,2.7-0.6,3.7-1.4c-0.9-2-1.2-4.7-1.2-7.7v-0.1c0-2.2,0.2-4.5,0.4-7c0-0.4,0.1-0.9,0.1-1.3
				c-0.3,0-0.5,0-0.8,0h-0.1C397.8,221.2,397.3,221.2,396.7,221.1"/>
			<path class="st31" d="M407.2,217.3c-0.8,1.5-2,2.8-3.8,3.3c-1,0.3-2.4,0.6-4.1,0.7c0,0.4-0.1,0.9-0.1,1.3c-0.3,2.5-0.4,4.9-0.4,7
				v0.1c0,3.1,0.3,5.7,1.2,7.7c1.7-1.5,2.6-3.6,2.7-3.9c0.7-1.3,3-8.7,4.9-16C407.5,217.4,407.3,217.3,407.2,217.3"/>
		</g>
		<g class="st2">
			<defs>
				<rect id="SVGID_31_" x="379.3" y="168.6" width="27" height="67"/>
			</defs>
			<clipPath id="SVGID_32_">
				<use xlink:href="#SVGID_31_"  style="overflow:visible;"/>
			</clipPath>
			<path class="st32" d="M389.5,217.3c-0.5,1.4-1.2,2.8-2.2,3.8c-0.6,1.3-1.1,2.3-1.4,2.7c-0.2,0.3-2.6,4.9-5.8,6.5
				c1.4,3.2,4.5,4.6,6.1,5c0.8,0.2,1.5,0.3,2,0.3h0c0.9,0,1.5-0.2,2-0.5c-0.4-0.8-0.8-1.7-1.2-2.8c-0.2-0.6-0.3-1.5-0.3-2.5v-0.2
				c0-3,0.8-7.3,1.7-11.4C390,217.9,389.7,217.6,389.5,217.3"/>
			<path class="st33" d="M390.3,218.2c-0.9,4.1-1.6,8.4-1.7,11.4v0.2c0,1,0.1,1.9,0.3,2.5c0.4,1.2,0.8,2.1,1.2,2.8
				c1.2-0.7,1.5-1.8,1.6-2.1c0.7-1,2.7-6.1,4.8-11.9C394.5,220.8,392.2,220,390.3,218.2"/>
		</g>
		<g class="st2">
			<defs>
				<rect id="SVGID_33_" x="369.7" y="170.4" width="28.6" height="60.6"/>
			</defs>
			<clipPath id="SVGID_34_">
				<use xlink:href="#SVGID_33_"  style="overflow:visible;"/>
			</clipPath>
			<path class="st34" d="M373.3,220.8c-0.9,1-1.9,1.8-3,2.2c-0.2,0.1-0.3,0.2-0.5,0.4c0.4,4.7,4.8,6.7,6.7,7.3
				c0.4,0.1,0.8,0.2,1.2,0.2h0.1c0.8,0,1.5-0.2,2.2-0.6c-0.5-1.3-0.8-2.8-0.6-4.6c0.1-0.9,0.2-1.8,0.3-2.6
				C377.7,222.8,375.4,222.2,373.3,220.8"/>
			<path class="st35" d="M387.3,221.1c-0.9,1-2,1.7-3.3,1.9c-0.6,0.1-1.3,0.2-2.1,0.2c-0.6,0-1.4,0-2.1-0.1
				c-0.1,0.9-0.2,1.7-0.3,2.6c-0.2,1.8,0.1,3.4,0.6,4.6c3.2-1.6,5.6-6.2,5.8-6.5C386.2,223.4,386.7,222.4,387.3,221.1"/>
		</g>
		<g class="st2">
			<defs>
				<rect id="SVGID_35_" x="358.4" y="174.1" width="33.1" height="50.8"/>
			</defs>
			<clipPath id="SVGID_36_">
				<use xlink:href="#SVGID_35_"  style="overflow:visible;"/>
			</clipPath>
			<path class="st36" d="M359.1,219L359.1,219c1.1,3,3.8,4.9,5.2,5.5c0.5,0.2,1.1,0.3,1.6,0.3c1.3,0,2.7-0.6,3.9-1.5
				c0-0.1,0-0.1,0-0.2c-0.1,0-0.2,0.1-0.4,0.1c-0.6,0.1-1.3,0.2-2.1,0.2h0C364.7,223.4,361.6,222.5,359.1,219"/>
			<path class="st37" d="M370.3,223c-0.2,0.1-0.3,0.1-0.5,0.2c0,0.1,0,0.1,0,0.2C369.9,223.3,370.1,223.1,370.3,223"/>
		</g>
		<g class="st2">
			<defs>
				<rect id="SVGID_37_" x="351.6" y="176.1" width="35" height="43.1"/>
			</defs>
			<clipPath id="SVGID_38_">
				<use xlink:href="#SVGID_37_"  style="overflow:visible;"/>
			</clipPath>
			<path class="st38" d="M359,218.9c-0.1,0.1-0.1,0.1-0.2,0.2c0.1,0,0.2,0,0.2-0.1C359,219,359,219,359,218.9"/>
			<path class="st39" d="M359,218.9C359,218.9,359,218.9,359,218.9c0,0.1,0,0.1,0,0.2c0,0,0.1,0,0.1,0
				C359.1,219,359.1,218.9,359,218.9"/>
		</g>
		<g class="st2">
			<defs>
				<rect id="SVGID_39_" x="344.4" y="154.6" width="25.8" height="66.3"/>
			</defs>
			<clipPath id="SVGID_40_">
				<use xlink:href="#SVGID_39_"  style="overflow:visible;"/>
			</clipPath>
			<path class="st40" d="M366.5,154.6L366.5,154.6l-1.6,2.2l-2,15c0,0-3.2,2.2-6.4,6.1c0.9,1.7,1.6,3,2,4.1c0.4,0,0.8,0.1,1.2,0.2
				c1.3-3.7,3.7-8,5.9-11.5C365.4,167.5,366.5,154.6,366.5,154.6"/>
			<path class="st41" d="M358.4,182c0.3,0.7,0.4,1.4,0.6,2.1c0-0.1,0-0.1,0.1-0.2c0.2-0.6,0.3-1.1,0.5-1.7
				C359.2,182.1,358.8,182,358.4,182"/>
			<path class="st40" d="M351.8,214.3c-1.2,1.9-2.5,3.6-3.9,4.8c1.7,1.6,3.7,1.8,5.5,1.8h0.1c0.6,0,1.2,0,1.7,0
				c1.2,0,2.4-0.7,3.6-1.7c-0.4,0.1-0.8,0.2-1.2,0.2h-0.1c-0.6,0-1.1-0.1-1.7-0.3C354.4,218.3,352.4,216.9,351.8,214.3"/>
			<path class="st42" d="M356,210.9c-1,0.5-2,0.8-2.9,1.1c-0.4,0.8-0.8,1.6-1.3,2.3c0.6,2.7,2.6,4,4,4.6c0.5,0.2,1.1,0.3,1.7,0.3
				h0.1c0.4,0,0.8-0.1,1.2-0.2c0.1-0.1,0.1-0.1,0.2-0.2c0-0.1-0.1-0.2-0.1-0.2c-0.7-1.1-1.4-2.4-1.9-4
				C356.6,213.4,356.2,212.2,356,210.9"/>
			<path class="st43" d="M355.4,206.8c-0.7,1.8-1.4,3.6-2.3,5.2c0.9-0.3,1.9-0.6,2.9-1.1C355.7,209.6,355.5,208.2,355.4,206.8"/>
			<path class="st44" d="M358.9,218.7c0,0.1,0.1,0.2,0.1,0.2c0,0,0,0,0,0C359,218.8,358.9,218.8,358.9,218.7"/>
		</g>
		<g class="st2">
			<defs>
				<rect id="SVGID_41_" x="335.2" y="165.2" width="23.9" height="55.9"/>
			</defs>
			<clipPath id="SVGID_42_">
				<use xlink:href="#SVGID_41_"  style="overflow:visible;"/>
			</clipPath>
			<path class="st45" d="M357.9,165.2l-1.5,0.7l-2.5,9.2c0,0-1,0.4-2.6,1.2c0.7,2.6,0.8,4.8,0.6,6.9c0.4-0.2,0.8-0.4,1.2-0.6
				c1-1.8,2.2-3.4,3.3-4.8c-0.2-0.4-0.5-0.9-0.8-1.4C355.3,175.9,357.9,165.2,357.9,165.2"/>
			<path class="st46" d="M353.1,182.7c-0.4,0.2-0.8,0.3-1.2,0.6c-0.2,1.8-0.8,3.6-1.4,5.6c0.2-0.6,0.5-1.3,0.7-2
				C351.7,185.4,352.4,184,353.1,182.7"/>
			<path class="st45" d="M342.7,207.8c-1.9,2.9-4.1,5.4-6.2,7c1.4,5.6,3.3,6.2,5.8,6.2c0.4,0,0.8,0,1.2,0c1.5-0.1,3-0.8,4.4-2
				c-1.3-1.2-2.4-3.3-3-6.7c-0.3-1.6-0.4-3-0.4-4.3c0,0,0,0-0.1,0h0C343.7,208.1,343.2,208,342.7,207.8"/>
			<path class="st46" d="M344.9,203.8c-0.7,1.4-1.5,2.8-2.3,4c0.5,0.2,1.1,0.2,1.6,0.2h0c0,0,0,0,0.1,0
				C344.4,206.6,344.6,205.3,344.9,203.8"/>
			<path class="st46" d="M345.1,208c-0.2,0-0.5,0-0.7,0c0,1.3,0.2,2.6,0.4,4.3c0.6,3.4,1.7,5.5,3,6.7c1.4-1.2,2.7-2.8,3.9-4.8
				c-0.1-0.6-0.2-1.2-0.2-1.9c-0.4,0.1-0.7,0.1-1,0.1c-0.8,0-1.4-0.2-2-0.5C347.3,211.1,345.6,210.1,345.1,208 M356.4,177.9
				c-1.2,1.4-2.3,3-3.3,4.8c1.4-0.6,2.8-0.8,4-0.8c0.5,0,0.9,0,1.3,0.1C358,180.8,357.4,179.6,356.4,177.9"/>
			<path class="st47" d="M354.4,203.9c-3.2,2.2-6.5,3.9-9.2,4.1c0.4,2.1,2.2,3.1,3.5,3.9c0.5,0.3,1.2,0.5,2,0.5c0.3,0,0.7,0,1-0.1
				c0-0.9,0.2-2,0.5-3.2C352.7,207.2,353.4,205.6,354.4,203.9"/>
			<path class="st47" d="M349.5,198.1c-0.9,0.5-1.8,1-2.8,1.3c-0.5,1.5-1.1,3-1.8,4.4c-0.4,1.5-0.5,2.8-0.5,4.2c0.2,0,0.5,0,0.7,0
				c-0.3-1.2-0.1-2.9,0.9-5.1C347.1,200.7,348,199.4,349.5,198.1"/>
			<path class="st48" d="M356.7,193c-1.1,0.8-2.3,1.7-3.7,2.7c-1.1,0.9-2.3,1.7-3.6,2.4c-1.5,1.3-2.4,2.6-3.5,4.9
				c-1,2.2-1.2,3.8-0.9,5.1c2.7-0.3,6.1-1.9,9.2-4.1c0.3-0.5,0.6-1,1-1.5C355.5,199.7,356,196.6,356.7,193"/>
			<path class="st47" d="M357.1,181.9c-1.2,0-2.6,0.2-4,0.8c-0.7,1.3-1.4,2.7-1.9,4.2c-0.3,0.7-0.5,1.4-0.7,2
				c-0.1,0.2-0.2,0.4-0.2,0.7c0.9-0.6,1.9-1.4,3.1-2.2c1.8-1.3,3.7-2,5.5-2.3c0.1-0.3,0.2-0.6,0.3-0.9c-0.1-0.7-0.3-1.4-0.6-2.1
				C358,181.9,357.6,181.9,357.1,181.9"/>
			<path class="st48" d="M358.7,185c-1.8,0.4-3.7,1.1-5.5,2.3c-1.1,0.8-2.2,1.5-3.1,2.2c-0.9,2.5-2,5.2-3,8.6
				c-0.1,0.4-0.3,0.9-0.4,1.3c0.9-0.4,1.8-0.8,2.8-1.3c1.6-1.4,3.7-2.7,7.2-5.1C357.3,190.6,357.9,188,358.7,185"/>
			<path class="st49" d="M356.7,193c-3.5,2.4-5.7,3.8-7.2,5.1c1.2-0.7,2.4-1.5,3.6-2.4C354.4,194.7,355.6,193.8,356.7,193
				C356.7,193,356.7,193,356.7,193"/>
			<path class="st50" d="M353.1,212c-0.5,0.2-1,0.3-1.5,0.3c0,0.7,0.1,1.4,0.2,1.9C352.2,213.6,352.7,212.8,353.1,212"/>
			<path class="st51" d="M355.3,203.2c-0.3,0.2-0.6,0.5-1,0.7c-1,1.7-1.7,3.4-2.2,5.2c-0.4,1.2-0.5,2.3-0.5,3.2
				c0.5-0.1,1-0.2,1.5-0.3c0.8-1.6,1.6-3.4,2.3-5.2c0-0.7-0.1-1.4-0.1-2.2v-0.2C355.3,204,355.3,203.6,355.3,203.2"/>
			<path class="st52" d="M355.4,202.4c-0.4,0.5-0.7,1-1,1.5c0.3-0.2,0.6-0.5,1-0.7C355.3,202.9,355.3,202.6,355.4,202.4"/>
		</g>
		<g class="st2">
			<defs>
				<rect id="SVGID_43_" x="326.3" y="165.6" width="28.9" height="51.7"/>
			</defs>
			<clipPath id="SVGID_44_">
				<use xlink:href="#SVGID_43_"  style="overflow:visible;"/>
			</clipPath>
			<path class="st53" d="M353.5,165.6L353.5,165.6l-5.2,10.3c0,0-9.1,0.3-13.2,9.4c-4.8,10.6-7.9,12.6-8.7,21.3
				c-0.1,1.4-0.2,2.6-0.2,3.6v0.1c0,5.2,1.5,6.9,4.3,7c0.1,0,0.1,0,0.2,0h0.1c1.7,0,3.7-0.9,5.7-2.5c-0.2-0.8-0.4-1.7-0.6-2.7
				c-0.4-2.4-0.7-4.2-0.7-5.8v-0.1c0-1.7,0.3-3.4,1-5.7c-0.1-0.1-0.3-0.2-0.4-0.2c-1.9-1.4-1.8-3.4,1.9-7.8c0.7-0.8,1.4-1.5,2-2.1
				c0.2-0.7,0.5-1.4,0.8-2.1c2.3-6.3,7.6-10.1,10.8-11.9c-0.1-0.4-0.2-0.7-0.3-1.1c-0.2-0.7,4.1-8.6,4.1-8.6L353.5,165.6"/>
			<path class="st54" d="M339.8,190.3c-0.6,0.6-1.3,1.3-2,2.1c-3.7,4.4-3.8,6.4-1.9,7.8c0.1,0.1,0.2,0.2,0.4,0.2
				C336.9,198.1,338.1,195,339.8,190.3"/>
			<path class="st54" d="M336.2,200.5c-0.7,2.3-1,4-1,5.7v0.1c0,1.6,0.3,3.4,0.7,5.8c0.2,1,0.4,1.9,0.6,2.7c2.1-1.7,4.3-4.1,6.2-7
				c-0.3-0.1-0.6-0.2-0.9-0.4c-1.2-0.8-2.3-1.4-2.3-3.1v0c0-0.8,0.2-1.8,0.7-3.1c-0.2,0-0.5,0-0.7,0h-0.1
				C338.1,201.1,337,200.9,336.2,200.5 M351.3,176.3c-3.2,1.8-8.5,5.5-10.8,11.9c-0.3,0.7-0.5,1.4-0.8,2.1c3-2.7,5.7-3.3,11.5-6.7
				c0.2-0.1,0.4-0.2,0.6-0.3C352.2,181.1,352.1,178.9,351.3,176.3"/>
			<path class="st55" d="M346.3,199.7c-2.2,0.9-4.3,1.4-6.1,1.5c-0.5,1.3-0.7,2.3-0.7,3.1v0c0,1.7,1,2.3,2.3,3.1
				c0.3,0.2,0.6,0.3,0.9,0.4c0.8-1.2,1.6-2.6,2.3-4C345.3,202.6,345.7,201.2,346.3,199.7"/>
			<path class="st55" d="M351.9,183.2c-0.2,0.1-0.4,0.2-0.6,0.3c-5.8,3.5-8.5,4-11.5,6.7c-1.7,4.7-2.8,7.8-3.6,10.2
				c0.8,0.5,1.9,0.7,3.2,0.7h0.1c0.2,0,0.5,0,0.7,0c0.2-0.5,0.5-1.1,0.8-1.8c2.1-4.6,2.6-5.1,9.2-9.8c0.1-0.2,0.2-0.5,0.3-0.7
				C351.1,186.9,351.6,185.1,351.9,183.2"/>
			<path class="st56" d="M350.2,189.5c-6.6,4.7-7,5.2-9.2,9.8c-0.3,0.7-0.6,1.3-0.8,1.8c1.8-0.1,3.9-0.6,6.1-1.5
				C347.2,197.1,348.5,194,350.2,189.5"/>
			<path class="st56" d="M346.8,199.5c-0.2,0.1-0.3,0.1-0.5,0.2c-0.6,1.6-1,2.9-1.4,4.2C345.6,202.4,346.2,201,346.8,199.5"/>
			<path class="st56" d="M350.4,188.9c-0.1,0.2-0.2,0.5-0.3,0.7c0,0,0,0,0,0C350.3,189.3,350.4,189.1,350.4,188.9"/>
			<path class="st57" d="M350.2,189.5C350.2,189.5,350.2,189.5,350.2,189.5c-1.7,4.4-3,7.6-3.9,10.1c0.2-0.1,0.3-0.1,0.5-0.2
				c0.1-0.4,0.3-0.9,0.4-1.3C348.2,194.8,349.3,192,350.2,189.5"/>
		</g>
		<g class="st2">
			<defs>
				<rect id="SVGID_45_" x="434.6" y="53.8" width="129.7" height="35.5"/>
			</defs>
			<clipPath id="SVGID_46_">
				<use xlink:href="#SVGID_45_"  style="overflow:visible;"/>
			</clipPath>
			<path class="st58" d="M562,53.8c-2.4,0-5.8,1.1-6.2,1.2c-0.7,0.3-21.3,2.3-23.7,3.2c-2.3,0.9-18.8,3.5-29.3,5.9
				c-10.5,2.4-41.5,9.5-51.1,13.1c-0.7,0.3-5.4,5-5.4,5l-11.7,4.4l0.6,0.7l12.6-4.8c0,0,1.7,1,4.2,2.2c1.2-0.6,2.7-1.3,3-1.5
				c9.8-3,41.3-7.7,52-9.4c10.7-1.7,27.3-3.3,29.6-4c1.7-0.5,13.3-1.8,19.9-2.6c5.5-4,7.1-9.3,7.6-11.9
				C564.5,54.1,563.4,53.8,562,53.8"/>
		</g>
		<g class="st2">
			<defs>
				<rect id="SVGID_47_" x="429.9" y="66.4" width="145.1" height="32.6"/>
			</defs>
			<clipPath id="SVGID_48_">
				<use xlink:href="#SVGID_47_"  style="overflow:visible;"/>
			</clipPath>
			<path class="st59" d="M452,84.7c-1,0.5-1.9,1-1.9,1l-18.3,3.8l-1.9,1.6l17.5-3c0,0,1.1,0.5,2.7,1.3c1.4-0.7,2.5-1.2,2.7-1.3
				c1.3-0.3,3-0.5,5-0.8C455.8,86.4,453.7,85.5,452,84.7 M566.2,66.4H566c-2.5,0-4.5,0.2-4.8,0.2c-0.2,0.1-2,0.3-4.6,0.6
				c-1.5,1.1-3.3,2.1-5.4,2.9c-5.3,2-10.1,3.3-12.4,4.2c-1.5,0.6-15.4,5.4-28.7,9.1c10.4-0.5,23.3-0.6,25.4-1
				c2.4-0.5,23.9-0.7,24.7-0.9c0.1,0,0.3,0,0.6,0c0.1,0,0.1,0,0.2,0c7.6-3.9,13.3-10,14-12.6c0-0.1,0-0.2,0-0.2v0
				C575,66.8,570.1,66.4,566.2,66.4"/>
			<path class="st60" d="M556.7,67.2c-6.6,0.8-18.2,2.1-19.9,2.6c-2.4,0.7-19,2.3-29.6,4c-10.7,1.7-42.2,6.4-52,9.4
				c-0.4,0.1-1.8,0.8-3,1.5c1.7,0.8,3.8,1.8,5.9,2.6c13.1-1.7,38.3-3.1,47.7-3.7c1.4-0.1,2.9-0.2,4.5-0.2
				c13.3-3.7,27.3-8.5,28.7-9.1c2.3-0.9,7.1-2.2,12.4-4.2C553.4,69.3,555.2,68.3,556.7,67.2"/>
		</g>
		<g class="st2">
			<defs>
				<rect id="SVGID_49_" x="424" y="81.4" width="149.7" height="23.8"/>
			</defs>
			<clipPath id="SVGID_50_">
				<use xlink:href="#SVGID_49_"  style="overflow:visible;"/>
			</clipPath>
			<path class="st61" d="M450.2,89.3c-2.8,1.4-6.8,3.5-6.8,3.5l-18,3.2l-1.4,1.4l21.6-3.5c0,0,1.1,0.9,2.9,2.1
				c1-0.2,1.7-0.4,1.9-0.4c3-0.3,7.6-0.4,12.9-0.4C458.5,93.1,453.3,90.7,450.2,89.3 M561,81.4c-1.8,0.9-3.6,1.7-5.6,2.3
				c-5.4,1.6-9.2,2.5-11.6,3.2c-2.2,0.7-29.6,7.3-43.5,9c0.4,0,0.7,0,1.1,0c10.1,0.4,25.3,2,29.2,2c0.3,0,0.5,0,0.7,0
				c0.1,0,0.3,0,0.6,0c2.1,0,7.7,0.4,13,0.9c1.1,0.1,2.1,0.2,3.1,0.3c3.3-0.4,7-1,9.8-1.5c10.5-2.2,14.7-9.5,15.8-12.6
				C574.7,82.2,564.1,81.5,561,81.4"/>
			<path class="st62" d="M560.8,81.4c-0.3,0-0.5,0-0.6,0c-0.7,0.2-22.3,0.4-24.7,0.9c-2.1,0.4-15,0.5-25.4,1
				c-7.8,2.1-15.4,3.9-20.1,4.1c-8.8,0.5-19.8,1.8-24.1,1.8h-0.1c-0.5,0-0.9,0-1.1-0.1c-2-0.3-4.4-1.1-6.8-2c-2,0.3-3.6,0.5-5,0.8
				c-0.2,0.1-1.4,0.6-2.7,1.3c3.1,1.4,8.3,3.8,13.1,5.8c0.7,0,1.5,0,2.3,0c12.1,0,27.1,0.5,34.8,0.8c13.9-1.7,41.3-8.3,43.5-9
				c2.4-0.7,6.2-1.6,11.6-3.2c1.9-0.6,3.8-1.4,5.6-2.3C560.9,81.4,560.9,81.4,560.8,81.4"/>
			<path class="st63" d="M510.1,83.3c-1.6,0.1-3.1,0.2-4.5,0.2c-9.4,0.6-34.7,2-47.7,3.7c2.3,0.9,4.7,1.7,6.8,2
				c0.3,0,0.7,0.1,1.1,0.1h0.1c4.3,0,15.3-1.3,24.1-1.8C494.8,87.2,502.3,85.5,510.1,83.3"/>
		</g>
		<g class="st2">
			<defs>
				<rect id="SVGID_51_" x="418.8" y="95.2" width="144.6" height="22.8"/>
			</defs>
			<clipPath id="SVGID_52_">
				<use xlink:href="#SVGID_51_"  style="overflow:visible;"/>
			</clipPath>
			<path class="st64" d="M548.1,99.1c-3.1,0.4-5.9,0.8-7.1,1c-2.4,0.5-32.8,4.9-46,4.9c-0.3,0-0.5,0-0.7,0c-0.8,0-1.7,0-2.6,0
				c0.5,0.1,1,0.2,1.5,0.2c10.7,1.5,27.1,5.9,29.7,5.9h0h0c1.3,0,6.8,1.6,12.2,3.2c0.9,0.3,1.8,0.5,2.6,0.8c0.5-0.1,1.3-0.1,2.3-0.2
				c15.9-0.9,21.9-7.7,23.3-10.7c1.4-2.9-6.2-4.6-7.2-4.6c0,0,0,0-0.1,0c0,0,0,0-0.1,0C555.3,99.7,552.1,99.4,548.1,99.1
				 M448.4,96.1c-3.4,0.8-9.9,2.5-9.9,2.5l-18.2,1.2l-1.5,1.3l25.5-0.8c0,0,0.3,0.4,0.8,1c3.3-0.6,6.7-0.9,10.1-1
				C452.5,98.8,450.2,97.3,448.4,96.1"/>
			<path class="st65" d="M463.3,95.2c-5.3,0-10,0.2-12.9,0.4c-0.2,0-0.9,0.2-1.9,0.4c1.7,1.2,4.1,2.8,6.7,4.3c0.5,0,1,0,1.4,0h0.2
				c13.6,0,27.2,3.4,34.8,4.6c0.9,0,1.7,0,2.6,0c0.2,0,0.5,0,0.7,0c13.3,0,43.6-4.4,46-4.9c1.2-0.2,3.9-0.6,7.1-1
				c-1-0.1-2.1-0.2-3.1-0.3c-5.3-0.4-11-0.9-13-0.9c-0.2,0-0.4,0-0.6,0c-0.2,0-0.4,0-0.7,0c-4,0-19.1-1.5-29.2-2c-0.3,0-0.7,0-1.1,0
				c-0.9,0.1-1.8,0.2-2.6,0.3c-8.9,0.7-19.4,2.8-23.8,2.8c-0.7,0-1.3-0.1-1.6-0.2C470.1,98.1,466.8,96.7,463.3,95.2"/>
			<path class="st66" d="M465.6,95.2c-0.8,0-1.5,0-2.3,0c3.5,1.5,6.8,2.9,9,3.6c0.4,0.1,0.9,0.2,1.6,0.2c4.4,0,14.9-2.1,23.8-2.8
				c0.8-0.1,1.6-0.1,2.6-0.3C492.7,95.6,477.7,95.2,465.6,95.2"/>
		</g>
		<g class="st2">
			<defs>
				<rect id="SVGID_53_" x="413.6" y="100.3" width="136.9" height="32.1"/>
			</defs>
			<clipPath id="SVGID_54_">
				<use xlink:href="#SVGID_53_"  style="overflow:visible;"/>
			</clipPath>
			<path class="st67" d="M537.6,115.1c-2.4,0.3-0.8,0.8-2.8,1c-1.9,0.2-22.8,1.8-38.4,1.9c6.5,2.1,12,3.9,13.6,4.1
				c2.5,0.4,17.2,8.1,18,8.2c0.3,0,2.1,0.8,4.1,1.9c0.1,0,0.2,0,0.3,0c14,0,16.1-5.8,17.8-8.5c1.7-2.8-3.6-6.2-4.3-6.2h0
				C545.5,117.5,541.9,116.4,537.6,115.1 M445.1,101.3c-2.9,0.5-5.7,1.3-8.4,2.4c0,0-0.2,0-0.4,0c-2.7,0-19.8-1.8-19.8-1.8l-3,1.4
				l12.3,1l11.8,0.6c0,0,0.2,0.5,0.5,1.3c1.8-0.2,3.5-0.2,5.3-0.2c2.1,0,4.2,0.1,6.2,0.3C447.6,104.3,446,102.4,445.1,101.3"/>
			<path class="st68" d="M455.2,100.3c-3.4,0.1-6.8,0.4-10.1,1c0.9,1.1,2.5,3,4.6,4.9c14.5,1.2,28.3,6.3,35.6,8.4
				c3.7,1.1,7.6,2.3,11.1,3.4c15.6-0.1,36.5-1.7,38.4-1.9c2-0.2,0.4-0.7,2.8-1c-0.9-0.3-1.7-0.5-2.6-0.8c-5.3-1.6-10.9-3.2-12.2-3.2
				h0h0c-2.5,0-18.9-4.4-29.7-5.9c-0.5-0.1-0.9-0.1-1.5-0.2c-0.4,0-0.8,0-1.2,0c-4,0-8,0.1-11.6,0.1c-3.6,0.1-6.6,0.1-8.5,0.1
				c-0.7,0-1.3,0-1.7,0C464.4,104.9,459.4,102.7,455.2,100.3"/>
			<path class="st69" d="M456.8,100.3h-0.2c-0.5,0-1,0-1.4,0c4.2,2.4,9.2,4.6,13.5,4.9c0.4,0,1,0,1.7,0c1.9,0,5-0.1,8.5-0.1
				c3.6-0.1,7.6-0.1,11.6-0.1c0.4,0,0.8,0,1.2,0C484,103.7,470.4,100.3,456.8,100.3"/>
		</g>
		<g class="st2">
			<defs>
				<rect id="SVGID_55_" x="408.4" y="104.1" width="128.8" height="42.8"/>
			</defs>
			<clipPath id="SVGID_56_">
				<use xlink:href="#SVGID_55_"  style="overflow:visible;"/>
			</clipPath>
			<path class="st70" d="M494.1,130.6c11.6,6.8,25.5,16.1,26,16.2c0,0,0,0,0,0c1.2-0.1,2.2-0.2,3.1-0.4c9.2-2,13.8-5.7,14-9
				c0,0,0-0.1,0-0.1v-0.1c0-1.8-2.7-3.8-5.1-5.1c-0.6,0-1.2,0-1.8,0c-0.9,0-1.8,0-2.8,0c-5.1,0-10.9,0.4-13,0.4h-0.1
				C512.8,132.4,503.8,131.7,494.1,130.6 M409.9,104.1l-1.5,0.7l9.1,2.1l11.6,2.3c0,0,0.7,0.5,1.9,1.6c1.9-0.3,3.9-0.4,5.9-0.4
				c1.1,0,2.2,0,3.4,0.1c-1-1.7-1.7-3.3-2.1-4.3c-2.5,0.2-4.9,0.6-7.3,1.2c0,0,0,0-0.1,0C429.1,107.4,409.9,104.1,409.9,104.1"/>
			<path class="st71" d="M443.4,105.9c-1.8,0-3.5,0.1-5.3,0.2c0.4,1,1.1,2.6,2.1,4.3c16.7,1.2,34.3,10.6,42.1,13.9
				c2.8,1.2,7.1,3.5,11.7,6.3c9.7,1.1,18.7,1.8,20.3,1.8h0.1c2.1,0,7.9-0.4,13-0.4c1,0,1.9,0,2.8,0c0.6,0,1.2,0,1.8,0
				c-1.9-1.1-3.7-1.8-4.1-1.9c-0.7-0.1-15.5-7.8-18-8.2c-1.6-0.2-7.1-2-13.6-4.1c-0.5,0-1,0-1.4,0c-4.4,0-8.3-0.1-11.2-0.5
				c-10.3-1.2-18.8-3.5-21.5-4c-4.8-0.8-9.3-4.2-12.6-7.3C447.6,106,445.5,105.9,443.4,105.9"/>
			<path class="st72" d="M449.7,106.2c3.3,3.1,7.9,6.5,12.6,7.3c2.7,0.5,11.2,2.7,21.5,4c2.8,0.3,6.7,0.5,11.2,0.5c0.5,0,1,0,1.4,0
				c-3.6-1.1-7.5-2.3-11.1-3.4C478,112.5,464.1,107.4,449.7,106.2"/>
		</g>
		<g class="st2">
			<defs>
				<rect id="SVGID_57_" x="404.9" y="105.9" width="120.3" height="55.5"/>
			</defs>
			<clipPath id="SVGID_58_">
				<use xlink:href="#SVGID_57_"  style="overflow:visible;"/>
			</clipPath>
			<path class="st73" d="M478.2,141.5c7.1,6,15.7,14,20.7,18.7c4.5,0.6,9.6,1.3,13.1,1.3c0.7,0,1.3,0,1.8-0.1c9.4-1,10.7-4.7,11.3-8
				c0.6-3.2-4.3-6.4-5-6.6c-0.7,0-1.4,0-2.1,0c-6.7,0-16.1-1.2-18-1.5C498.5,145.2,488.4,143.7,478.2,141.5 M406.5,105.9
				L406.5,105.9l-1.6,0.5l8.8,3.1l9.7,3.2c0,0,0.8,0.8,1.9,2.4c3.6,0,7.2,0.6,10.7,1.5c-1.8-2.7-3.7-4.7-5-6
				c-1.4,0.2-2.7,0.5-4.1,0.9c0,0,0,0-0.1,0C425.4,111.7,406.5,105.9,406.5,105.9"/>
			<path class="st74" d="M436.9,110.3c-2,0-4,0.1-5.9,0.4c1.3,1.2,3.2,3.2,5,6c14.6,3.9,27.4,14,34.2,18.5c2.1,1.4,4.9,3.6,8,6.2
				c10.2,2.2,20.3,3.7,21.9,3.9c1.9,0.3,11.2,1.5,18,1.5c0.7,0,1.4,0,2.1,0h0c-0.5-0.1-14.5-9.4-26-16.2c-7-0.8-14.3-1.8-19.5-3
				c-10.1-2.2-20.1-5.4-24.3-7.3c-4.7-2.1-7.9-6.3-10-9.8C439.1,110.4,438,110.3,436.9,110.3"/>
			<path class="st75" d="M440.2,110.5c2,3.5,5.3,7.8,10,9.8c4.3,1.9,14.2,5.1,24.3,7.3c5.2,1.1,12.5,2.2,19.5,3
				c-4.6-2.7-8.9-5.1-11.7-6.3C474.6,121.1,457,111.7,440.2,110.5"/>
		</g>
		<g class="st2">
			<defs>
				<rect id="SVGID_59_" x="402.5" y="107.8" width="104.9" height="70.8"/>
			</defs>
			<clipPath id="SVGID_60_">
				<use xlink:href="#SVGID_59_"  style="overflow:visible;"/>
			</clipPath>
			<path class="st76" d="M450.4,138.7c1.3,1.4,2.5,2.7,3.7,3.7c6.2,5.5,20.3,23.2,26.8,31.2c4.9,1.8,9.7,3.7,13.1,5
				c7.7-0.1,12.2-3.5,13.3-6.3c0.1-0.3,0.2-0.7,0.2-1.1v0c0-3-3.7-6.8-4.3-7.1c-0.2-0.1-1.8-1.6-4.3-3.9c-4-0.6-7.5-1.1-8.5-1.2
				c-8.7-0.9-21.9-10.8-33.2-16.7C455.1,141.2,452.8,140,450.4,138.7 M404.1,107.8l-1.6,0.6v0l8.9,4.9l6.8,2.6c0,0,0.9,1.1,1.7,2.5
				c3,0.4,5.8,1.2,8.3,2.2c-1.1-2.4-2.1-4.1-2.9-5.4c-0.2,0-0.3,0-0.5,0c-1.2,0-2.4,0.1-3.6,0.2c0,0,0,0,0,0
				C420.2,115.4,404.1,107.8,404.1,107.8"/>
			<path class="st77" d="M480.8,173.6c1.6,1.9,2.7,3.3,3.1,3.8c2.4,0.6,4.5,0.9,7.2,1.1c0.8,0.1,1.6,0.1,2.3,0.1c0.1,0,0.3,0,0.4,0
				C490.5,177.3,485.8,175.4,480.8,173.6"/>
			<path class="st78" d="M425.2,115.2c0.8,1.3,1.9,3,2.9,5.4c10.2,4.1,16.7,12.1,22.2,18.1c2.5,1.3,4.8,2.6,6.8,3.6
				c11.4,5.9,24.5,15.8,33.2,16.7c1.1,0.1,4.5,0.7,8.5,1.2c-5.1-4.7-13.7-12.8-20.7-18.7c-5.8-1.3-11.7-2.8-16-4.4
				c-9.7-3.7-22.4-13.7-24.7-17.8c-0.5-0.9-1-1.8-1.5-2.5C432.4,115.8,428.9,115.3,425.2,115.2"/>
			<path class="st79" d="M435.9,116.8c0.5,0.8,1,1.6,1.5,2.5c2.2,4.1,15,14.1,24.7,17.8c4.3,1.6,10.2,3.1,16,4.4
				c-3.1-2.6-5.9-4.9-8-6.2C463.4,130.8,450.6,120.6,435.9,116.8"/>
		</g>
		<g class="st2">
			<defs>
				<rect id="SVGID_61_" x="399.4" y="109.1" width="92.3" height="84.6"/>
			</defs>
			<clipPath id="SVGID_62_">
				<use xlink:href="#SVGID_61_"  style="overflow:visible;"/>
			</clipPath>
			<path class="st80" d="M454.8,168c0.7,1,1.3,2.1,2,3.1l0.8,0.3c0,0,0.7,0.1,1.5,0.2c-0.9-1.7-1.5-2.9-1.5-2.9L454.8,168
				 M438.1,144.3c0.7,1.1,1.5,2.2,2.4,3.2c3.3,3.9,8.8,12,13.8,19.7l2.4,0.6c0,0,4-0.8,5-0.8c0.1,0,0.1,0,0.2,0
				c0.5,0.1,1,0.3,1.5,0.4c-7.8-5.5-14.8-12.5-21.3-19.2C440.9,147.1,439.5,145.7,438.1,144.3 M401,109.1l-1.5,0.6l7.6,5l6.3,3.6
				c0,0,0.5,1.6,0.8,3.6c3.4,0.9,6.2,2.2,8.6,3.7c-0.8-1.6-1.5-3.2-1.9-4.8c-0.2-0.8-0.6-1.6-0.9-2.3c-1.1-0.2-2.3-0.3-3.5-0.3
				C415.6,118,401,109.1,401,109.1"/>
			<path class="st81" d="M461.7,167.1c-0.9,0-5,0.8-5,0.8l-2.4-0.6c0.2,0.2,0.3,0.5,0.5,0.7l2.7,0.7c0,0,0.6,1.2,1.5,2.9
				c1,0.1,2.1,0.3,2.3,0.4c5.7,1.8,20.3,8.7,29.1,12.9c-2-3.3-5.9-6.9-6.3-7.2c0,0-0.1-0.1-0.2-0.2c-2.6-0.7-5.6-1.8-10-3.8
				c-3.7-1.6-7.2-3.7-10.5-6.1c-0.6-0.2-1.1-0.3-1.5-0.4C461.8,167.1,461.8,167.1,461.7,167.1"/>
			<path class="st81" d="M456.7,171.1c0.7,1,1.3,2,1.9,3c0.8,0.3,1.7,0.8,2.7,1.3c-0.9-1.3-1.7-2.7-2.3-3.8
				c-0.8-0.1-1.5-0.2-1.5-0.2L456.7,171.1"/>
			<path class="st82" d="M459,171.6c0.6,1.1,1.5,2.5,2.3,3.8c7.7,3.9,21.7,12.3,27.9,16c1-0.8,1.7-1.6,2.2-2.5c0.6-1,0-2.5-1.1-4.1
				c-8.8-4.2-23.4-11.1-29.1-12.9C461.1,171.8,460,171.7,459,171.6"/>
			<path class="st83" d="M458.6,174.1c2.8,4.5,5.1,8.3,6.2,10.4c4.1,2.8,8.5,6,12.1,8.6c1.8,0.4,3.4,0.5,4.8,0.5
				c2.9,0,5-0.7,6.6-1.6c-3.5-1.3-6.6-2.7-8.6-3.9c-5.9-3.6-13.9-7.7-15.3-9c-1.1-1-2.1-2.3-3.1-3.8
				C460.3,174.8,459.4,174.4,458.6,174.1"/>
			<path class="st84" d="M461.4,175.4c1,1.4,2,2.8,3.1,3.8c1.4,1.3,9.4,5.4,15.3,9c2,1.2,5.1,2.5,8.6,3.9c0.3-0.2,0.6-0.4,0.9-0.6
				C483,187.7,469.1,179.3,461.4,175.4"/>
			<path class="st85" d="M467.9,189.6c0.3,0.4,0.5,0.9,0.8,1.3c1.5,0.6,3,1,4.5,1.3C471.1,191.3,469.3,190.4,467.9,189.6"/>
			<path class="st86" d="M464.8,184.5c0.3,0.6,0.6,1.1,0.7,1.4c0.1,0.3,1.2,1.8,2.3,3.7c1.4,0.8,3.3,1.7,5.3,2.7
				c1,0.2,2.1,0.5,3.2,0.7c0.2,0,0.4,0.1,0.6,0.1C473.3,190.4,468.9,187.3,464.8,184.5"/>
			<path class="st87" d="M419.9,118.4c0.4,0.7,0.7,1.5,0.9,2.3c0.4,1.5,1,3.1,1.9,4.8c8.2,5.1,11.5,12.8,15.4,18.8
				c1.4,1.4,2.7,2.8,4,4c6.5,6.7,13.5,13.7,21.3,19.2c4.1,1.2,10.9,3.6,17.5,6.1c-6.4-8-20.6-25.6-26.8-31.2
				c-1.2-1.1-2.4-2.4-3.7-3.7c-8.9-4.8-19.5-11.2-21.2-15.6c-0.3-0.9-0.7-1.7-1-2.5C425.6,119.6,422.9,118.8,419.9,118.4"/>
			<path class="st88" d="M463.4,167.5c3.4,2.4,6.9,4.4,10.5,6.1c4.4,2,7.4,3.1,10,3.8c-0.4-0.5-1.5-1.9-3.1-3.8
				C474.3,171.1,467.5,168.7,463.4,167.5"/>
			<path class="st89" d="M428.2,120.6c0.3,0.8,0.7,1.6,1,2.5c1.7,4.4,12.2,10.7,21.2,15.6C444.9,132.7,438.3,124.7,428.2,120.6"/>
		</g>
		<g class="st2">
			<defs>
				<rect id="SVGID_63_" x="395.5" y="110.6" width="75.8" height="91.7"/>
			</defs>
			<clipPath id="SVGID_64_">
				<use xlink:href="#SVGID_63_"  style="overflow:visible;"/>
			</clipPath>
			<path class="st90" d="M440.5,172.5c0.6,1.3,1.3,2.6,1.9,3.9c0.1,0.1,0.2,0.1,0.2,0.1c2,0.4,3.9,1.1,5.8,1.9
				c0-0.6-0.1-0.9-0.1-0.9L440.5,172.5 M438.4,168.2c0.4,0.8,0.8,1.7,1.3,2.5l6,3.6c0,0,0.8,0.3,2,0.7c-1.1-1.3-2.1-2.6-3.1-3.9
				L438.4,168.2 M397.1,110.6L397.1,110.6l-1.7,0.7l2.5,2.1l9.8,8.3c0,0,0.4,3.2,0.6,5.9c11.7,5.4,16.9,17.8,21.7,25.2
				c2.1,3.3,5.1,8.9,8.1,14.9l0.9-0.2l4.3,1.9c-4-5.4-7.7-11-11.2-15.8c-6-8.4-17-21.3-17.9-30.9c0-0.4-0.1-0.7-0.1-1
				c-1.1-0.3-2.2-0.5-3.3-0.8C410.1,120.9,397.2,110.6,397.1,110.6"/>
			<path class="st91" d="M439.1,167.6l-0.9,0.2c0.1,0.1,0.1,0.2,0.2,0.4l6.2,2.9c-0.4-0.5-0.8-1-1.2-1.5L439.1,167.6"/>
			<path class="st91" d="M439.6,170.7c0.3,0.6,0.6,1.2,0.9,1.8l7.8,5c0,0,0,0.3,0.1,0.9c1.7,0.7,3.3,1.6,4.9,2.6
				c-1.9-1.8-3.8-3.9-5.6-6c-1.1-0.4-2-0.7-2-0.7L439.6,170.7"/>
			<path class="st92" d="M462.4,187.8c3.4,2.9,6.3,5.9,8.7,8.3c-0.4-1.6-1.4-3.5-2.4-5.3C466.9,190.3,464.9,189.3,462.4,187.8"/>
			<path class="st93" d="M442.4,176.4c0.5,1,0.9,1.9,1.4,2.9c1.8,1.1,3.6,2.4,5.3,3.8c-0.4-1.9-0.6-3.6-0.7-4.6
				c-1.9-0.8-3.8-1.5-5.8-1.9C442.5,176.5,442.5,176.4,442.4,176.4"/>
			<path class="st94" d="M448.3,178.4c0.1,1,0.2,2.7,0.7,4.6c7.8,6.4,13.8,14.8,17.1,18.8c0,0,0,0,0,0c2.2-0.6,3.8-1.8,4.7-3.1
				c0.3-0.4,0.4-1,0.3-1.7c-4.9-3.3-9.7-6.3-10.9-7.2c-2.1-1.7-4-4.6-5.4-7.4c-0.6-0.5-1.1-1-1.7-1.6
				C451.6,180,450,179.1,448.3,178.4"/>
			<path class="st95" d="M454.9,182.5c1.4,2.8,3.3,5.7,5.4,7.4c1.2,0.9,6,3.9,10.9,7.2c0-0.3-0.1-0.6-0.2-1
				c-2.4-2.4-5.3-5.4-8.7-8.3c-0.7-0.4-1.5-0.9-2.4-1.5C458.3,185.3,456.6,184,454.9,182.5"/>
			<path class="st96" d="M443.7,179.3c1.3,2.8,2.5,5.4,3.4,7.5c4.4,4.8,7.9,10.4,10.5,14.7c2,0.6,3.7,0.8,5.3,0.8c0.1,0,0.3,0,0.4,0
				c-5-4.5-8.7-8.8-10-10c-2.4-2.3-3.7-6.1-4.4-9.2C447.3,181.7,445.6,180.4,443.7,179.3"/>
			<path class="st97" d="M449,183c0.7,3.1,1.9,6.8,4.4,9.2c1.3,1.3,4.9,5.5,10,10c1,0,2-0.2,2.8-0.4c0,0,0,0,0,0
				C462.8,197.8,456.9,189.4,449,183"/>
			<path class="st98" d="M447.1,186.7c1.2,2.7,2,4.7,2.1,5.4c0.1,0.4,1.7,3.5,2.6,6.9c1.2,0.6,2.3,1.1,3.5,1.6
				c0.8,0.3,1.6,0.6,2.3,0.8C455,197.2,451.5,191.6,447.1,186.7"/>
			<path class="st99" d="M444.5,171.1c1,1.3,2.1,2.6,3.1,3.9c1.5,0.5,3.5,1.3,4.7,1.7c-0.5-1.4-0.8-2.3-0.8-2.3L444.5,171.1
				 M414.2,121.8c0,0.3,0.1,0.7,0.1,1c0.9,9.5,11.9,22.5,17.9,30.9c3.5,4.8,7.2,10.5,11.2,15.8l7.4,3.3c0,0,3.1,0.4,5.3,0.7
				c-0.7-1.1-1.1-1.8-1.1-1.8l-11.3-5.2l1.7-0.2l11.3,4.7c-0.6-1-1.3-2-2-3.1l-6.5-1.6l-0.1-0.6v0l6.1,1.5
				c-5-7.8-10.5-15.8-13.8-19.7c-0.8-1-1.6-2.1-2.4-3.2c-5.5-5.6-12-12.4-15.4-18.8C420.3,124,417.5,122.7,414.2,121.8"/>
			<path class="st100" d="M448.2,165.8L448.2,165.8l0.1,0.6l6.5,1.6c-0.2-0.2-0.3-0.5-0.5-0.7L448.2,165.8"/>
			<path class="st100" d="M445.4,166.4l-1.7,0.2l11.3,5.2c0,0,0.4,0.7,1.1,1.8c1.1,0.1,1.9,0.3,2.1,0.3c0.1,0.1,0.3,0.1,0.4,0.2
				c-0.6-1-1.2-2-1.9-3L445.4,166.4"/>
			<path class="st101" d="M443.4,169.5c0.4,0.5,0.8,1,1.2,1.5l7,3.3c0,0,0.3,0.9,0.8,2.3c0.7,0.3,1.2,0.4,1.3,0.5
				c1.8,1,4.5,2.7,7.6,4.8c-2-3.1-4-6.5-5.2-8.5c-2.2-0.3-5.3-0.7-5.3-0.7L443.4,169.5"/>
			<path class="st102" d="M456.1,173.5c1.2,2,3.2,5.4,5.2,8.5c1.1,0.8,2.3,1.6,3.5,2.4c-1.1-2.1-3.4-5.9-6.2-10.4
				c-0.2-0.1-0.3-0.1-0.4-0.2C458,173.8,457.2,173.7,456.1,173.5"/>
			<path class="st101" d="M447.6,175c1.8,2.1,3.6,4.2,5.6,6c0.5,0.3,0.9,0.6,1.4,0.9c-0.9-1.9-1.7-3.7-2.2-5.1
				C451.1,176.2,449.1,175.5,447.6,175"/>
			<path class="st103" d="M452.4,176.7c0.5,1.4,1.2,3.2,2.2,5.1c2.8,1.8,5.4,3.9,7.8,6c2.5,1.5,4.5,2.4,6.3,3.1
				c-0.3-0.5-0.5-0.9-0.8-1.3c-1.4-0.8-2.5-1.4-2.8-1.9c-1-1.3-2.3-3.4-3.8-5.6c-3.1-2.1-5.8-3.8-7.6-4.8
				C453.5,177.2,453.1,177,452.4,176.7"/>
			<path class="st104" d="M461.3,182c1.4,2.2,2.8,4.3,3.8,5.6c0.4,0.5,1.4,1.1,2.8,1.9c-1.2-1.9-2.2-3.4-2.3-3.7
				c-0.1-0.3-0.4-0.8-0.7-1.4C463.6,183.6,462.4,182.8,461.3,182"/>
			<path class="st105" d="M453.2,181c0.6,0.5,1.1,1.1,1.7,1.6c-0.1-0.2-0.2-0.5-0.4-0.7C454.1,181.5,453.7,181.2,453.2,181"/>
			<path class="st106" d="M454.6,181.8c0.1,0.2,0.2,0.5,0.4,0.7c1.6,1.4,3.3,2.8,5.1,3.9c0.8,0.5,1.6,1,2.4,1.5
				C460,185.7,457.3,183.6,454.6,181.8"/>
			<path class="st107" d="M422.7,125.5c3.4,6.4,9.9,13.2,15.4,18.8C434.2,138.3,430.9,130.5,422.7,125.5"/>
		</g>
		<g class="st2">
			<defs>
				<rect id="SVGID_65_" x="388" y="115.6" width="64.3" height="96.3"/>
			</defs>
			<clipPath id="SVGID_66_">
				<use xlink:href="#SVGID_65_"  style="overflow:visible;"/>
			</clipPath>
			<path class="st108" d="M425.7,170.7c0.5,1.2,1,2.5,1.4,3.8c0.9,1.5,1.6,2.5,1.7,2.6c0.7,0.4,1.3,0.8,2,1.2
				C429,175.7,427.3,173.2,425.7,170.7 M388.1,115.6L388.1,115.6l0,1.4l11.4,10c0,0,0.3,2.9-0.1,5.2c4.3,1.8,7.7,4.4,10.4,7.4
				c-1-3.1-1.5-6.3-1.3-9.9c0-0.6,0-1.3,0-2.2c-2.5-1.2-5.3-2-8.5-2.4C399.1,125.2,388.1,115.7,388.1,115.6"/>
			<path class="st109" d="M442.6,192.4c3.2,6,5.1,12,6.5,15.5c0.1,0.2,0.2,0.4,0.3,0.7c0.1-0.1,0.2-0.1,0.2-0.2
				c2.1-1.3,2.7-3.5,2.7-5.8c-2-2.3-3.9-4.5-5.4-6.5C445.5,195,444.1,193.8,442.6,192.4"/>
			<path class="st110" d="M447,196c1.5,2,3.4,4.2,5.4,6.5c0-1.1-0.2-2.3-0.5-3.4C450.2,198.3,448.6,197.3,447,196"/>
			<path class="st111" d="M436.4,202c0.2,1.3,0.4,2.5,0.6,3.6c0.3,1.2,0.6,2.8,0.8,4.7c1.3,0.7,2.4,1.1,3.4,1.3
				c-0.8-1.7-1.6-3.4-2.4-4.9C438.1,205.4,437.3,203.7,436.4,202 M427.1,174.5c0.8,2.2,1.6,4.4,2.4,6.6c0.5,0.6,0.9,1.2,1.3,1.7
				c0.3-1.6,0.4-2.9,0.5-4c-0.1-0.2-0.3-0.4-0.4-0.6c-0.6-0.4-1.3-0.8-2-1.2C428.7,177,428,176,427.1,174.5"/>
			<path class="st112" d="M431.3,178.9c0,1-0.1,2.3-0.5,4c4.2,6.3,4.8,13.6,5.5,19.1c0.9,1.7,1.7,3.4,2.5,4.7
				c0.8,1.5,1.6,3.2,2.4,4.9c0.7,0.2,1.4,0.3,2,0.3c1.9,0,3.1-0.8,4.1-1.7c-1.3-1.6-2.6-3.1-3.5-4.5c-4.1-5.9-7.4-16.7-7.1-19.9
				C434.7,183.4,432.9,181.1,431.3,178.9"/>
			<path class="st113" d="M436.7,185.8c-0.3,3.3,3,14,7.1,19.9c1,1.4,2.2,2.9,3.5,4.5c0.7-0.6,1.3-1.2,2.1-1.7
				c-0.1-0.2-0.2-0.5-0.3-0.7c-1.4-3.5-3.4-9.5-6.5-15.5c-1.3-1.3-2.7-2.7-4-4.3C438,187.3,437.3,186.5,436.7,185.8"/>
			<path class="st114" d="M436.2,201.7c0.1,0.5,0.2,0.9,0.2,1.2c0,0.3,0.3,1.7,0.4,3.4v0.1c0,1-0.1,2.1-0.4,3.1
				c0.2,0.1,0.5,0.3,0.7,0.4c0.2,0.1,0.5,0.3,0.7,0.4c-0.3-1.9-0.5-3.5-0.8-4.7c-0.3-1.1-0.5-2.3-0.6-3.6
				C436.3,201.9,436.3,201.8,436.2,201.7 M429.6,181.1c0.4,1,0.7,2,1,2.9c0.1-0.4,0.2-0.8,0.2-1.2
				C430.5,182.3,430,181.7,429.6,181.1"/>
			<path class="st115" d="M430.9,182.9c-0.1,0.4-0.2,0.8-0.2,1.2c2.6,7.5,4.9,14.6,5.6,17.6c0.1,0.1,0.1,0.2,0.2,0.3
				C435.6,196.5,435.1,189.2,430.9,182.9"/>
			<path class="st111" d="M424.3,167.3c0.4,1.1,0.9,2.2,1.4,3.4c1.6,2.5,3.2,5,5.2,7.6c0.2,0.1,0.3,0.2,0.5,0.3
				c0-1.4-0.1-2.1-0.1-2.1l-4.3-5.7L424.3,167.3 M408.3,127.6c0,0.8,0.1,1.6,0,2.2c-0.2,3.5,0.4,6.8,1.3,9.9
				c6.2,6.9,9.1,15.9,12.1,22c0.6,1.1,1.2,2.5,1.9,4.1l0.5,0.1c0,0,8.9,11.1,9.4,11.3c0.9,0.3,1.8,0.7,2.7,1.1
				c-0.2-1.1-0.4-1.7-0.4-1.7l-5.7-5.9l-4.4-4.8l1.2,0.2c0,0,10.2,9.9,10.7,10.1c1.6,0.6,3.2,1.3,4.7,2.2c0.1-0.6,0.2-0.9,0.2-0.9
				l-6.5-5l-6.7-5.4l2.3,0.4c0,0,9.1,7.8,10.7,8.9c-0.6-1.3-1.2-2.6-1.9-3.9l-7.2-4.6l1.4-0.1l5,2.9c-0.4-0.8-0.8-1.7-1.3-2.5
				l-0.6-0.3l0.4-0.1c-3-6-6-11.6-8.1-14.9C425.3,145.4,420,133,408.3,127.6"/>
			<path class="st116" d="M438.2,167.8l-0.4,0.1l0.6,0.3C438.3,168,438.2,167.9,438.2,167.8"/>
			<path class="st116" d="M434.7,167.8L434.7,167.8l-1.4,0.1l7.2,4.6c-0.3-0.6-0.6-1.2-0.9-1.8L434.7,167.8"/>
			<path class="st112" d="M429.4,167.2L429.4,167.2l6.7,5.4l6.5,5c0,0-0.1,0.3-0.2,0.9c0.5,0.3,0.9,0.5,1.3,0.8
				c-0.4-0.9-0.9-1.9-1.4-2.9c-1.6-1.1-10.7-8.9-10.7-8.9L429.4,167.2"/>
			<path class="st112" d="M425.8,166L425.8,166l4.4,4.8l5.7,5.9c0,0,0.2,0.6,0.4,1.7c1.9,0.9,3.8,2.1,5.5,3.5
				c0.1-1.4,0.3-2.6,0.5-3.3c-1.5-0.8-3.1-1.6-4.7-2.2c-0.5-0.2-10.7-10.1-10.7-10.1L425.8,166"/>
			<path class="st113" d="M442.4,178.5c-0.2,0.8-0.4,1.9-0.5,3.3c1.9,1.5,3.6,3.2,5.2,5c-0.9-2.1-2.1-4.7-3.4-7.5
				C443.3,179,442.8,178.7,442.4,178.5"/>
			<path class="st112" d="M423.7,165.7c0.2,0.5,0.4,1,0.7,1.6l2.5,3.5l4.3,5.7c0,0,0.1,0.7,0.1,2.1c2.1,1.5,3.9,3.2,5.6,5.1
				c0-2.3-0.2-4.2-0.5-5.4c-0.9-0.4-1.8-0.8-2.7-1.1c-0.5-0.2-9.4-11.3-9.4-11.3L423.7,165.7"/>
			<path class="st113" d="M436.4,178.3c0.3,1.2,0.5,3.1,0.5,5.4c2.3,2.7,4.2,5.7,5.8,8.6c1.5,1.4,2.9,2.6,4.3,3.7
				c-1.5-1.9-2.6-3.5-3.3-4.7c-1.9-3-2-6.8-1.8-9.6C440.1,180.4,438.3,179.2,436.4,178.3"/>
			<path class="st117" d="M441.9,181.8c-0.2,2.8-0.1,6.6,1.8,9.6c0.7,1.1,1.8,2.8,3.3,4.7c1.7,1.2,3.3,2.2,4.9,3.1
				c-0.9-3.5-2.5-6.6-2.6-6.9c-0.2-0.8-1-2.8-2.1-5.4C445.5,185,443.7,183.3,441.9,181.8"/>
			<path class="st114" d="M430.9,178.3c0.1,0.2,0.3,0.4,0.4,0.6c0-0.1,0-0.2,0-0.3C431.2,178.5,431,178.4,430.9,178.3"/>
			<path class="st115" d="M431.3,178.6c0,0.1,0,0.2,0,0.3c1.6,2.2,3.4,4.5,5.4,6.9c0,0,0,0,0,0c0.1-0.7,0.1-1.4,0.1-2.1
				C435.2,181.8,433.4,180.1,431.3,178.6"/>
			<path class="st118" d="M436.9,183.7c0,0.7-0.1,1.3-0.1,2.1c0,0,0,0,0,0c0.6,0.7,1.2,1.5,1.9,2.2c1.4,1.6,2.7,3,4,4.3
				C441.1,189.4,439.2,186.4,436.9,183.7"/>
		</g>
		<g class="st2">
			<defs>
				<rect id="SVGID_67_" x="384.1" y="119.9" width="52.7" height="96.3"/>
			</defs>
			<clipPath id="SVGID_68_">
				<use xlink:href="#SVGID_67_"  style="overflow:visible;"/>
			</clipPath>
			<path class="st119" d="M413.7,173.8c0.3,0.8,0.5,1.6,0.8,2.4c0.3,0.3,0.6,0.7,0.8,1C414.7,176,414.2,174.9,413.7,173.8
				 M384.3,119.9L384.3,119.9l-0.2,1.4v0l10.2,11.2c0,0,1,2.7,0.3,5c0,0.2-0.1,0.3-0.1,0.5c2.1,0.9,3.8,2.2,5.4,3.7
				c-1-2.4-1.3-5-0.6-9.2c0-0.1,0-0.2,0-0.3c-1.4-0.6-2.8-1-4.4-1.4C394.2,130.7,384.4,120,384.3,119.9"/>
			<path class="st120" d="M427.1,200.5c0,1,0,1.9,0.1,2.8c0.3,2.8,0.3,7.8,0.2,12.9c0.2,0,0.4,0,0.6,0h0.1c0.7,0,1.4-0.2,2-0.4
				c-0.9-3.8-1.6-7.7-2.2-11.5C427.6,203.1,427.3,201.8,427.1,200.5"/>
			<path class="st121" d="M427.1,199.2c0,0.4,0,0.8-0.1,1.2c0.2,1.4,0.5,2.7,0.7,3.9c0.6,3.8,1.3,7.7,2.2,11.5
				c0.7-0.2,1.3-0.6,2-0.9c2.6-1.2,3.9-3.3,4.4-5.4C433.2,207.5,430.1,203.9,427.1,199.2"/>
			<path class="st120" d="M418.6,183.9c1,3.4,1.1,6.9,0.9,10.2c0,0.1,0.1,0.2,0.1,0.4c0-2.7,0-5.5,0.3-8.1
				C419.5,185.5,419,184.7,418.6,183.9"/>
			<path class="st121" d="M419.9,186.4c-0.3,2.6-0.3,5.4-0.3,8.1c2.1,7.9,3.7,14.8,3.7,16.5c0,0.4,0.7,2-0.2,3.8
				c1.7,0.9,3.1,1.3,4.2,1.5c0.1-5.2,0.1-10.1-0.2-12.9c-0.1-0.9-0.1-1.8-0.1-2.8c-0.1-0.6-0.2-1.2-0.3-1.8c-1.2-1.9-2.3-3.9-3.5-6
				C422.1,190.5,421,188.4,419.9,186.4"/>
			<path class="st122" d="M426.8,198.6c0.1,0.6,0.2,1.2,0.3,1.8c0-0.4,0-0.8,0.1-1.2C427,199,426.9,198.8,426.8,198.6"/>
			<path class="st123" d="M414.4,176.2c0.4,1.3,0.9,2.8,1.3,4.2c0,0,0,0,0,0c0.2-0.2,0.4-0.6,0.6-0.9c-0.4-0.8-0.8-1.5-1.1-2.3
				C415,176.8,414.7,176.5,414.4,176.2"/>
			<path class="st124" d="M416.4,179.5c-0.2,0.4-0.4,0.7-0.6,0.9c0,0,0,0,0,0c1.3,4.4,2.6,9.2,3.8,13.7c0.1-3.3,0-6.8-0.9-10.2
				C417.9,182.4,417.1,180.9,416.4,179.5"/>
			<path class="st123" d="M399.3,132.2c0,0.1,0,0.2,0,0.3c-0.7,4.2-0.4,6.8,0.6,9.2c7,7,8.9,19.3,12,27c0.5,1.4,1.2,3.1,1.8,5
				c0.5,1.1,1.1,2.3,1.6,3.4c0.5,0.6,0.9,1.3,1.3,1.9c1-1.6,2-3.6,2-3.6l-2.3-8.7l-0.6-2.2l1.2,0.3c0,0,3.3,11,3.7,11.4
				c0.6,0.6,1.1,1.2,1.6,1.8c0.6-1.3,1-2.4,1-2.4l-2.2-4.6l-2.4-5.9v0l1.1,0.3c0,0,4.8,10.9,5.2,11.2c0.7,0.5,1.3,1,1.9,1.6
				c0.1-1.1,0-2.1,0-2.1l-2.9-4.2l-3.2-6.3l1.1,0.3c0,0,3,5.2,5.1,8.5c-0.5-1.3-1-2.5-1.4-3.8c-3-4.8-5.6-9.5-8.5-15.1
				c-3-5.8-5.9-10.7-7.5-16C407,136.6,403.6,134,399.3,132.2"/>
			<path class="st124" d="M421,165.7l3.2,6.3l2.9,4.2c0,0,0.1,1,0,2.1c1,0.9,1.8,1.8,2.6,2.8c-0.8-2.2-1.6-4.5-2.4-6.6
				c-2-3.3-5.1-8.5-5.1-8.5L421,165.7"/>
			<path class="st124" d="M418.7,165.3L418.7,165.3l2.4,5.9l2.2,4.6c0,0-0.4,1.1-1,2.4c1.6,1.9,2.7,3.7,3.5,5.5
				c0.2-1.3,0.4-2.4,0.8-3.5c0.2-0.5,0.3-1.1,0.4-1.7c-0.6-0.5-1.2-1.1-1.9-1.6c-0.4-0.3-5.2-11.2-5.2-11.2L418.7,165.3"/>
			<path class="st125" d="M427,178.4c-0.1,0.6-0.2,1.2-0.4,1.7c-0.4,1-0.7,2.2-0.8,3.5c2.5,5.6,1.6,11,1.4,15.7
				c3,4.7,6,8.3,9.3,10.3c0.3-1.1,0.4-2.2,0.4-3.1v-0.1c0-1.8-0.3-3.1-0.4-3.4c0-0.3-0.1-0.7-0.2-1.2c-3.2-6.2-6.5-13.8-5.8-17
				c0.1-0.2,0.1-0.4,0.2-0.6c-0.3-1-0.7-2-1-2.9C428.8,180.2,427.9,179.2,427,178.4"/>
			<path class="st126" d="M430.6,184.1c0,0.2-0.1,0.4-0.2,0.6c-0.8,3.1,2.6,10.7,5.8,17C435.5,198.6,433.2,191.6,430.6,184.1"/>
			<path class="st124" d="M415.7,164.6l0.6,2.2l2.3,8.7c0,0-1.1,2-2,3.6c0.9,1.5,1.6,3.2,2,4.8c0.4,0.8,0.8,1.6,1.3,2.5
				c0.3-3,0.9-5.7,2-7.7c0.1-0.2,0.2-0.4,0.3-0.6c-0.5-0.6-1-1.2-1.6-1.8c-0.4-0.4-3.7-11.4-3.7-11.4L415.7,164.6"/>
			<path class="st125" d="M422.3,178.1c-0.1,0.2-0.2,0.4-0.3,0.6c-1.1,2-1.7,4.7-2,7.7c1.1,2,2.2,4.1,3.4,6.3c1.2,2.1,2.3,4.1,3.5,6
				c-0.8-5-1.6-10.6-1-15.1C425,181.7,423.9,179.9,422.3,178.1"/>
			<path class="st126" d="M425.8,183.5c-0.6,4.5,0.2,10.1,1,15.1c0.1,0.2,0.2,0.4,0.4,0.6C427.4,194.5,428.2,189.2,425.8,183.5"/>
			<path class="st127" d="M415.3,177.2c0.4,0.8,0.7,1.5,1.1,2.3c0.1-0.1,0.1-0.2,0.2-0.3C416.2,178.5,415.8,177.8,415.3,177.2"/>
			<path class="st128" d="M416.6,179.1c-0.1,0.1-0.1,0.2-0.2,0.3c0.7,1.4,1.5,2.9,2.2,4.4C418.2,182.3,417.5,180.7,416.6,179.1"/>
			<path class="st124" d="M409.7,139.7c1.6,5.3,4.5,10.2,7.5,16c2.9,5.6,5.5,10.3,8.5,15.1c-0.5-1.2-0.9-2.3-1.4-3.4l-1.3-1.8h0
				l0.6,0.2c-0.7-1.6-1.3-3-1.9-4.1C418.8,155.6,415.9,146.5,409.7,139.7"/>
			<path class="st129" d="M423.1,165.6L423.1,165.6l1.3,1.8c-0.2-0.5-0.4-1.1-0.7-1.6L423.1,165.6"/>
		</g>
		<g class="st2">
			<defs>
				<rect id="SVGID_69_" x="382" y="126.8" width="41.6" height="92.3"/>
			</defs>
			<clipPath id="SVGID_70_">
				<use xlink:href="#SVGID_69_"  style="overflow:visible;"/>
			</clipPath>
			<path class="st130" d="M382.8,126.8L382.8,126.8l-0.8,1.1v0l6.8,9c0,0-1.1,2.4-2,4.7c-0.9,2.3-1.5,3.9-1.8,5.1
				c5.1,4.4,8.2,7.7,10.3,10.8c-0.3-0.8-0.6-1.6-0.9-2.4c-3.6-9.5-2.6-8.3,0.1-16.9c-0.7-0.3-1.5-0.6-2.3-0.8
				C391.4,137,382.8,126.8,382.8,126.8"/>
			<path class="st131" d="M418.1,211.2c-0.3,2.4-0.7,5-1.1,7.5c0.6-0.1,1.1-0.3,1.5-0.4c0.6-0.2,1.1-0.4,1.5-0.7
				c-0.1-1.6-0.1-3.2-0.1-4.8c-0.2-0.1-0.4-0.2-0.6-0.4C419,212.1,418.5,211.7,418.1,211.2"/>
			<path class="st132" d="M419.9,212.7c0,1.6,0,3.2,0.1,4.8c1.7-0.9,2.7-1.9,3.1-2.8C422.2,214.2,421.1,213.6,419.9,212.7"/>
			<path class="st133" d="M409.3,210.8c-0.5,2.1-1.1,4.4-1.7,6.7c0.6,0.3,1.1,0.6,1.7,0.8C409.2,215.6,409.2,213.2,409.3,210.8"/>
			<path class="st134" d="M411.5,199.7c-0.3,1.6-0.6,3-0.8,4.3c-0.3,1.7-0.8,4.1-1.4,6.8c-0.1,2.4-0.1,4.8,0,7.5
				c1.5,0.5,3,0.8,4.4,0.8h0c1.2,0,2.3-0.2,3.3-0.4c0.4-2.5,0.8-5.1,1.1-7.5C416,208.9,413.7,204.5,411.5,199.7"/>
			<path class="st135" d="M406.3,187.2c0,1-0.1,1.9-0.3,2.9c1.6,6.9,2.8,13.1,2.7,14.9c0,0.2,0.1,1.6,0.1,3.5v0.2
				c0,2.6-0.3,6.1-1.7,8.7c0.1,0.1,0.3,0.2,0.4,0.3c0.6-2.3,1.2-4.6,1.7-6.7c0.2-3.9,0.6-7.7,1.2-12c0-0.4,0.1-0.8,0.1-1.1
				C409.1,194,407.6,190.3,406.3,187.2"/>
			<path class="st136" d="M410.6,197.6c0,0.4-0.1,0.7-0.1,1.1c-0.6,4.3-1,8.1-1.2,12c0.6-2.7,1.2-5.1,1.4-6.8
				c0.2-1.3,0.5-2.8,0.8-4.3C411.2,199,410.9,198.3,410.6,197.6"/>
			<path class="st135" d="M403.9,181.3c0.5,2.1,1.1,4.3,1.6,6.4c0.1-0.7,0.2-1.3,0.2-2c-0.2-0.6-0.5-1.2-0.7-1.8
				C404.6,183,404.3,182.1,403.9,181.3"/>
			<path class="st137" d="M405.7,185.8c-0.1,0.6-0.2,1.3-0.2,2c0.2,0.8,0.4,1.6,0.5,2.3c0.1-1,0.2-1.9,0.3-2.9
				C406.1,186.7,405.9,186.2,405.7,185.8"/>
			<path class="st133" d="M410.2,166c0.7,2.8,2.2,8.2,2.5,8.5c0.6,0.6,1.2,1.2,1.8,1.7c-0.3-0.8-0.5-1.6-0.8-2.4
				C412.4,171.1,411.3,168.5,410.2,166 M394.5,138c-2.6,8.7-3.7,7.5-0.1,16.9c0.3,0.9,0.6,1.7,0.9,2.4c2.7,3.9,3.9,7.6,5.6,13.3
				c0.2,0.5,0.3,1,0.5,1.5l-0.1-3.3l0.9-0.3c0,0,0.9,9.3,1.2,9.7c0.4,0.5,0.7,0.9,1,1.4c0.1-0.1,0.2-0.1,0.3-0.2
				c1.4-1.1,1.8-3,1.8-3l-1.4-10.5l0.6-0.7c0,0,1.4,10.1,1.8,10.5c0.7,0.8,1.4,1.7,2,2.5c1.2-1.2,2.2-3,2.2-3l-2.5-10.2l0.4-0.5
				c-1.6-3.8-3-7.6-4.5-11.5c-2-5.4-4.1-8.2-5.3-11.2C398.3,140.2,396.6,138.9,394.5,138"/>
			<path class="st134" d="M419.6,194.1c-0.1,3-0.5,5.8-0.6,8.1c-0.1,2.2-0.4,5.4-0.9,9c0.4,0.5,0.9,0.9,1.3,1.2
				c0.2,0.1,0.4,0.3,0.6,0.4c0-3.2,0-6.3,0-9.2c0-2.6-0.2-5.8-0.3-9.1C419.6,194.3,419.6,194.2,419.6,194.1"/>
			<path class="st138" d="M419.6,194.5c0.1,3.3,0.2,6.5,0.3,9.1c0,2.9,0,6,0,9.2c1.2,0.8,2.3,1.5,3.2,2c0.9-1.8,0.2-3.3,0.2-3.8
				C423.3,209.3,421.7,202.4,419.6,194.5"/>
			<path class="st135" d="M409.6,164.5l-0.4,0.5l2.5,10.2c0,0-1,1.7-2.2,3c1.8,2.7,2.7,5.5,3,8.4c0.7-2.2,1.7-4.2,3.2-6.2
				c-0.4-1.5-0.9-2.9-1.3-4.2c-0.5-0.6-1.1-1.2-1.8-1.7c-0.3-0.3-1.7-5.6-2.5-8.5C410,165.5,409.8,165,409.6,164.5"/>
			<path class="st136" d="M415.7,180.4c-1.5,2-2.5,4-3.2,6.2c0.6,4.6-0.2,9.1-1,13.1c2.2,4.8,4.5,9.2,6.5,11.5
				c0.5-3.6,0.8-6.8,0.9-9c0.1-2.3,0.4-5.1,0.6-8.1C418.4,189.6,417,184.8,415.7,180.4"/>
			<path class="st135" d="M405.8,165.2l-0.6,0.7l1.4,10.5c0,0-0.5,1.9-1.8,3c-0.1,0.1-0.2,0.1-0.3,0.2c0.8,1.3,1.3,2.8,1.6,4.2
				c0.4-1.8,1.3-3.4,3.4-5.5c0,0,0.1-0.1,0.1-0.1c-0.6-0.9-1.2-1.7-2-2.5C407.2,175.3,405.8,165.2,405.8,165.2"/>
			<path class="st137" d="M409.6,178.2c0,0-0.1,0.1-0.1,0.1c-2.1,2.1-2.9,3.8-3.4,5.5c0.2,0.9,0.2,1.8,0.2,2.7v0.1
				c0,0.1,0,0.3,0,0.4c1.3,3.2,2.8,6.9,4.3,10.5c0.5-4,0.9-7.7,1.9-11C412.2,183.8,411.3,180.9,409.6,178.2"/>
			<path class="st139" d="M412.6,186.6c-1.1,3.4-1.4,7-1.9,11c0.3,0.7,0.6,1.4,0.9,2C412.3,195.7,413.1,191.2,412.6,186.6"/>
			<path class="st135" d="M402.2,168.6l-0.9,0.3l0.1,3.3c0.7,2.4,1.5,5.2,2.2,8.1c0.3-0.2,0.5-0.4,0.8-0.6c-0.3-0.5-0.6-0.9-1-1.4
				C403.1,177.9,402.2,168.6,402.2,168.6"/>
			<path class="st137" d="M404.5,179.7c-0.3,0.2-0.5,0.4-0.8,0.6c0.1,0.3,0.2,0.7,0.3,1c0.3,0.9,0.7,1.8,1.1,2.7
				c0.2,0.6,0.5,1.1,0.7,1.8c0.1-0.6,0.2-1.3,0.3-1.8C405.8,182.4,405.3,181,404.5,179.7"/>
			<path class="st140" d="M406.1,183.9c-0.1,0.6-0.2,1.2-0.3,1.8c0.2,0.5,0.4,0.9,0.6,1.4c0-0.1,0-0.3,0-0.4v-0.1
				C406.3,185.7,406.2,184.8,406.1,183.9"/>
			<path class="st135" d="M399.9,141.7c1.2,3.1,3.3,5.9,5.3,11.2c1.4,3.9,2.9,7.7,4.5,11.5l0.2-0.2c0,0,0.2,0.7,0.5,1.7
				c1.1,2.5,2.2,5.1,3.5,7.8c-0.6-1.9-1.3-3.6-1.8-5C408.7,161.1,406.8,148.7,399.9,141.7"/>
			<path class="st137" d="M409.7,164.2l-0.2,0.2c0.2,0.5,0.4,1,0.6,1.5C409.9,164.9,409.7,164.2,409.7,164.2"/>
		</g>
		<g class="st2">
			<defs>
				<rect id="SVGID_71_" x="378.4" y="132" width="30.5" height="89.2"/>
			</defs>
			<clipPath id="SVGID_72_">
				<use xlink:href="#SVGID_71_"  style="overflow:visible;"/>
			</clipPath>
			<path class="st141" d="M390,179.2c-0.3,1-0.6,2-0.9,2.9c0.1,0.7,0.3,1.4,0.4,2c0.6-0.5,1.1-1,1.6-1.4
				C390.7,181.4,390.3,180.2,390,179.2 M379.7,132l-1.1,2.1l4.1,13.5c0,0-1.5,4.7-2.6,10.3c0.2,0.4,0.3,0.7,0.3,0.7
				c4,5.2,6.3,12.8,8.1,20.7l0.9-2.2c-1.9-6.4-2.3-9.7-3.4-18.9c-0.9-7.7-1.8-8.2-0.9-11.5c-0.2-0.2-0.4-0.4-0.7-0.6
				C383.8,145.6,379.7,132,379.7,132"/>
			<path class="st142" d="M400.8,208.9c-1.1,3.6-2.6,8.1-4.1,12.2c0.6,0.1,1.1,0.1,1.7,0.1h0.1c0.3,0,0.5,0,0.8,0
				c0.5-4.5,1-8.4,1.7-12.1C400.9,209.1,400.9,209,400.8,208.9"/>
			<path class="st143" d="M400.9,209.1c-0.6,3.6-1.1,7.6-1.7,12.1c1.7-0.1,3.1-0.4,4.1-0.7c1.8-0.5,3-1.7,3.8-3.3
				c-1.7-1-3.2-2.6-4.5-4.9C402,211.2,401.5,210.2,400.9,209.1"/>
			<path class="st142" d="M392.5,208.3c-0.7,1.8-1.4,3.7-2.1,5.5c-0.2,1.2-0.5,2.4-1,3.5c0.3,0.3,0.6,0.6,0.9,0.9
				c0.6-2.9,1.3-5.8,1.8-7.9C392.2,209.6,392.4,208.9,392.5,208.3"/>
			<path class="st143" d="M396.1,197.8c-0.3,1-0.6,2.1-1,3.3c-0.7,2-1.6,4.6-2.6,7.3c-0.1,0.6-0.3,1.3-0.5,2c-0.5,2.1-1.2,5-1.8,7.9
				c1.9,1.8,4.2,2.6,6.4,2.9c1.5-4.1,3-8.6,4.1-12.2C399,205.3,397.5,201.7,396.1,197.8"/>
			<path class="st144" d="M391.1,182.7c-0.5,0.4-1,0.9-1.6,1.4c0.3,1.2,0.5,2.4,0.7,3.6c0.1,0.6,0.2,1.2,0.3,1.7
				c0.3-0.5,0.5-1,0.8-1.6c0.3-0.6,0.6-1.1,0.8-1.6C391.8,185,391.5,183.8,391.1,182.7"/>
			<path class="st145" d="M392.3,186.3c-0.2,0.5-0.5,1-0.8,1.6c-0.3,0.6-0.6,1.1-0.8,1.6c0.8,4.4,1.1,7.8,1.1,10.6v0.2
				c0,3.1-0.3,5.3-0.6,7.1c0,0.3-0.1,3.2-0.7,6.5c0.7-1.8,1.4-3.7,2.1-5.5c1.5-6.5,2.3-8.8,3.1-11.7c-0.7-2.1-1.5-4.3-2.3-6.7
				C393,188.6,392.6,187.4,392.3,186.3"/>
			<path class="st146" d="M395.7,196.6c-0.9,2.9-1.6,5.2-3.1,11.7c1-2.7,1.9-5.2,2.6-7.3c0.4-1.2,0.7-2.3,1-3.3
				C396,197.4,395.8,197,395.7,196.6"/>
			<path class="st144" d="M389.3,177l-0.9,2.2c0.2,0.9,0.4,1.9,0.6,2.8c0.3-0.9,0.6-1.9,0.9-2.9C389.8,178.4,389.5,177.7,389.3,177"
				/>
			<path class="st142" d="M385,146.6c-1,3.3,0,3.8,0.9,11.5c1.1,9.2,1.5,12.5,3.4,18.9l0.8-2.2l1.4-0.7c0,0-0.7,2.4-1.6,5.1
				c0.3,1.1,0.7,2.3,1.1,3.6c1.5-1.3,2.7-2.2,2.7-2.2l3-9.4l1.5-0.8c0,0.1-3.1,9.4-2.9,10c0.1,0.2,0.1,0.4,0.2,0.6
				c0.7-0.5,1.6-1.2,3.1-2.2c1.4-1,3-1.9,3-1.9l-0.1-1.5c-3-7.8-3.2-9.8-6.2-17.9C393.2,154.3,390.1,151,385,146.6"/>
			<path class="st143" d="M401.2,207.8c-0.1,0.4-0.2,0.7-0.3,1.1c0,0.1,0.1,0.1,0.1,0.2C401,208.7,401.1,208.2,401.2,207.8"/>
			<path class="st147" d="M406,190.1c-0.8,5-3,10.2-3.9,14.2c-0.2,1-0.6,2.2-1,3.6c-0.1,0.4-0.2,0.9-0.2,1.3
				c0.5,1.1,1.1,2.1,1.7,3.2c1.3,2.3,2.9,3.9,4.5,4.9c1.4-2.6,1.7-6,1.7-8.7v-0.2c0-1.9-0.2-3.2-0.1-3.5
				C408.8,203.1,407.6,197,406,190.1"/>
			<path class="st143" d="M401.6,175.3l0.1,1.5c0,0-1.6,0.9-3,1.9c-1.5,1-2.4,1.7-3.1,2.2c1.2,4.6,1.6,7.6,1.6,10.3
				c0.1-0.5,0.3-1.1,0.4-1.8c1.6-6.4,1.8-5.9,5.9-9C402.8,178.4,402.1,176.8,401.6,175.3"/>
			<path class="st147" d="M403.5,180.4c-4.1,3.1-4.3,2.6-5.9,9c-0.2,0.6-0.3,1.2-0.4,1.8c0,2.3-0.4,4.3-1.1,6.6
				c1.4,3.9,2.9,7.5,4.7,11.1c0.1-0.4,0.2-0.7,0.3-1.1c1-5.5,2.1-10.3,3.4-15.3c0.5-1.9,0.7-3.4,0.9-4.7c-0.5-2.1-1-4.3-1.6-6.4
				C403.8,181,403.7,180.7,403.5,180.4"/>
			<path class="st148" d="M405.5,187.7c-0.2,1.3-0.4,2.9-0.9,4.7c-1.3,5-2.4,9.8-3.4,15.3c0.4-1.4,0.7-2.6,1-3.6
				c0.9-4,3.1-9.1,3.9-14.2C405.8,189.3,405.7,188.5,405.5,187.7"/>
			<path class="st149" d="M398.3,170.4l-1.5,0.8l-3,9.4c0,0-1.1,0.9-2.7,2.2c0.4,1.1,0.7,2.3,1.2,3.6c1.7-3.4,1.6-4.1,3.3-5.4
				c0-0.2-0.1-0.4-0.2-0.6C395.3,179.8,398.3,170.4,398.3,170.4"/>
			<path class="st150" d="M395.6,180.9c-1.6,1.3-1.6,2-3.3,5.4c0.4,1.1,0.7,2.3,1.1,3.5c0.8,2.4,1.5,4.6,2.3,6.7
				c0.4-1.4,0.9-3,1.5-5.4C397.2,188.5,396.7,185.5,395.6,180.9"/>
			<path class="st151" d="M397.2,191.2c-0.6,2.3-1.1,3.9-1.5,5.4c0.1,0.4,0.3,0.8,0.4,1.2C396.8,195.5,397.2,193.5,397.2,191.2"/>
			<path class="st149" d="M391.5,174.1L391.5,174.1l-1.4,0.7l-0.8,2.2c0.2,0.7,0.4,1.4,0.6,2.1C390.8,176.5,391.5,174.1,391.5,174.1
				"/>
			<path class="st143" d="M395.4,157.4c3,8.1,3.2,10.1,6.2,17.9l-0.1-3.1c-0.2-0.5-0.3-1.1-0.5-1.5
				C399.2,165,398.1,161.3,395.4,157.4"/>
			<path class="st147" d="M401.4,172.2l0.1,3.1c0.6,1.5,1.2,3.1,2,5.1c0,0,0.1-0.1,0.1-0.1C402.9,177.4,402.1,174.6,401.4,172.2"/>
			<path class="st148" d="M403.7,180.3c0,0-0.1,0.1-0.1,0.1c0.1,0.3,0.2,0.6,0.4,0.9C403.8,180.9,403.7,180.6,403.7,180.3"/>
		</g>
		<g class="st2">
			<defs>
				<rect id="SVGID_73_" x="365.4" y="141.8" width="26.2" height="81.4"/>
			</defs>
			<clipPath id="SVGID_74_">
				<use xlink:href="#SVGID_73_"  style="overflow:visible;"/>
			</clipPath>
			<path class="st152" d="M380.2,186.9c-0.1,0.2-0.1,0.3-0.1,0.3c0,0.1,0,0.2,0,0.4c0.1,0,0.1-0.1,0.2-0.1
				C380.2,187.3,380.2,187.1,380.2,186.9 M379,181.4c-0.3,0.4-0.7,0.8-1,1.2c0.2,0.9,0.3,1.8,0.5,2.8c0.7-0.3,1.1-0.4,1.2-0.5
				C379.5,183.6,379.2,182.4,379,181.4 M374.7,141.8L374.7,141.8l-1,2l3.4,13.9c0,0-2.5,4.2-4.9,9.3c3.7,5,4.5,8.6,5.5,14.2l1-1.1
				c-0.3-1.6-0.4-2.8-0.4-4.3v-0.2c0-2.1,0.2-4.8,0.6-9.8c0.2-2.6,0.6-5.3,1.1-7.8C378.8,154.6,374.7,141.8,374.7,141.8"/>
			<path class="st153" d="M378.8,180.1l-1,1.1c0.1,0.5,0.2,1,0.3,1.5c0.3-0.4,0.7-0.8,1-1.2C378.9,180.9,378.9,180.5,378.8,180.1"/>
			<path class="st154" d="M389.1,216.9c-0.7,1.6-1.3,3.1-1.9,4.2c0.9-1,1.7-2.4,2.2-3.8C389.3,217.2,389.2,217,389.1,216.9"/>
			<path class="st155" d="M383.7,203c-0.5,1.2-1,2.5-1.6,3.7c-2.7,6.2-5.1,9.1-6.8,11c-0.6,1.2-1.2,2.3-2,3.2c2.1,1.3,4.4,2,6.4,2.3
				c0.7-4.6,1.8-8.8,3.4-14c0.5-1.5,0.9-2.8,1.2-4C384.1,204.4,383.9,203.7,383.7,203"/>
			<path class="st156" d="M384.3,205.1c-0.4,1.2-0.8,2.5-1.2,4c-1.6,5.2-2.7,9.3-3.4,14c0.8,0.1,1.5,0.1,2.1,0.1
				c0.8,0,1.6-0.1,2.1-0.2c1.4-0.2,2.4-0.9,3.3-1.9c0.5-1.2,1.2-2.6,1.9-4.2c-0.6-0.7-1.1-1.6-1.5-2.6
				C386.3,211.3,385.2,208.2,384.3,205.1"/>
			<path class="st155" d="M380.3,187.5c-0.1,0-0.1,0.1-0.2,0.1c0.1,1.8-0.1,3.2-0.4,4.6c0.1,1.1,0.2,2.1,0.2,3
				c0.4-0.6,0.9-1.2,1.5-2c-0.2-1-0.4-2-0.6-3.1C380.6,189.2,380.4,188.3,380.3,187.5"/>
			<path class="st157" d="M381.4,193.2c-0.6,0.8-1.1,1.4-1.5,2c0.2,5.7-1.1,8.7-1.5,11.3c-0.1,0.5-0.8,6.4-3.1,11.1
				c1.7-1.9,4.1-4.8,6.8-11c0.5-1.2,1-2.4,1.6-3.7C382.8,199.9,382.1,196.6,381.4,193.2"/>
			<path class="st155" d="M379.8,185c-0.1,0-0.6,0.2-1.2,0.5c0.2,0.9,0.3,1.8,0.5,2.8c0,0,0,0,0,0c0.3-0.2,0.7-0.4,1-0.6
				c0-0.1,0-0.2,0-0.4c0,0,0-0.2,0.1-0.3C380,186.2,379.9,185.6,379.8,185"/>
			<path class="st157" d="M380.1,187.6c-0.3,0.2-0.7,0.4-1,0.6c0.3,1.4,0.5,2.8,0.6,4C380,190.8,380.1,189.4,380.1,187.6"/>
			<path class="st155" d="M389.1,182.1c-0.4,1.4-0.8,2.7-1,3.4c0.5-0.5,0.9-0.9,1.4-1.3C389.4,183.4,389.3,182.8,389.1,182.1
				 M380,157.9c-0.5,2.5-0.9,5.3-1.1,7.8c-0.3,5-0.6,7.7-0.6,9.8v0.2c0,1.5,0.1,2.7,0.4,4.3l1.1-1.2l1.8-0.6c0,0-1.2,1.5-2.6,3.2
				c0.2,1,0.4,2.1,0.7,3.5c0,0,0,0,0,0l5.3-7.9l1.5-1c0,0.1-5.6,8.9-6.4,10.8c0,0.2,0.1,0.4,0.1,0.5c3.3-1.9,6.3-3.3,6.3-3.3
				l1.9-4.9c-1.8-7.9-4.2-15.5-8.1-20.7C380.3,158.5,380.2,158.3,380,157.9"/>
			<path class="st158" d="M381.7,178.2l-1.8,0.6l-1.1,1.2c0.1,0.4,0.2,0.9,0.3,1.4C380.4,179.7,381.6,178.2,381.7,178.2"/>
			<path class="st156" d="M390.4,213.8c-0.4,1.1-0.9,2.1-1.3,3.1c0.1,0.1,0.2,0.3,0.3,0.4C389.9,216.1,390.2,214.9,390.4,213.8"/>
			<path class="st157" d="M389.6,184.1c-0.5,0.4-0.9,0.9-1.4,1.3c-0.1,0.3-0.1,0.5-0.1,0.5c0.3,5.1-1.9,11.2-4.4,17
				c0.2,0.7,0.4,1.4,0.6,2.1c2.4-7.9,3.1-9.5,6.3-15.7c-0.1-0.6-0.2-1.1-0.3-1.7C390,186.5,389.8,185.3,389.6,184.1"/>
			<path class="st159" d="M390.6,189.4c-3.3,6.2-3.9,7.8-6.3,15.7c0.9,3.1,2,6.2,3.3,9.2c0.4,1,1,1.8,1.5,2.6c0.4-1,0.8-2,1.3-3.1
				c0.6-3.2,0.7-6.1,0.7-6.5c0.2-1.8,0.6-4,0.6-7.1V200C391.7,197.3,391.4,193.8,390.6,189.4"/>
			<path class="st157" d="M388.5,179.3l-1.9,4.9c0,0-3,1.4-6.3,3.3c0.2,0.8,0.3,1.7,0.5,2.6c0.2,1,0.4,2.1,0.6,3.1
				c0.7-0.9,1.7-2.1,3-3.7c1.1-1.4,2.5-2.8,3.8-4.1c0.2-0.7,0.5-1.9,1-3.4C388.9,181.1,388.7,180.2,388.5,179.3"/>
			<path class="st159" d="M388.2,185.4c-1.3,1.3-2.6,2.7-3.8,4.1c-1.3,1.6-2.2,2.8-3,3.7c0.7,3.4,1.4,6.7,2.2,9.8
				c2.4-5.8,4.6-11.9,4.4-17C388.1,185.9,388.1,185.7,388.2,185.4"/>
			<path class="st157" d="M386.6,176.1l-1.5,1l-5.3,7.9c0,0,0,0,0,0c0.1,0.6,0.3,1.3,0.4,2C381.1,185.1,386.6,176.2,386.6,176.1"/>
		</g>
		<g class="st2">
			<defs>
				<rect id="SVGID_75_" x="355.3" y="148.2" width="24.7" height="75.3"/>
			</defs>
			<clipPath id="SVGID_76_">
				<use xlink:href="#SVGID_75_"  style="overflow:visible;"/>
			</clipPath>
			<path class="st160" d="M370.6,148.2l-1,2.4l0.2,13.5c0,0-2,2.8-4.4,6.6c0,0.4,0,0.6,0.1,0.7c1.5,2.6,2.4,4.2,3.1,5.6
				c0.7-3.1,2.2-6.7,3.7-10c-0.1-0.1-0.2-0.3-0.3-0.4C371.5,165.9,370.6,148.2,370.6,148.2"/>
			<path class="st161" d="M372.9,220.5c-0.7,0.8-1.6,1.7-2.6,2.5c1.2-0.4,2.2-1.2,3-2.2C373.1,220.7,373,220.6,372.9,220.5"/>
			<path class="st161" d="M367.8,212.8C367.8,212.8,367.7,212.8,367.8,212.8c-0.3,0.3-4.6,5.1-8.6,6.2c2.4,3.5,5.6,4.4,8.2,4.4h0
				c0.8,0,1.5-0.1,2.1-0.2c0.1,0,0.2,0,0.4-0.1c0-0.1,0-0.3,0-0.4v-0.1c0-0.5,0.1-1.1,0.2-1.7c0.2-0.9,0.4-1.7,0.6-2.6
				c-0.9-1.1-1.7-2.5-2.3-4.2C368.1,213.7,367.9,213.2,367.8,212.8"/>
			<path class="st162" d="M370.5,218.3c-0.2,0.9-0.4,1.7-0.6,2.6c-0.1,0.6-0.2,1.2-0.2,1.7v0.1c0,0.1,0,0.3,0,0.4
				c0.2,0,0.3-0.1,0.5-0.2c1-0.8,1.9-1.7,2.6-2.5C372,219.9,371.2,219.2,370.5,218.3"/>
			<path class="st162" d="M366,207.5c-2,4.8-4.4,9-7,11.4c0,0,0.1,0.1,0.1,0.1c4.1-1.1,8.3-5.9,8.6-6.2c0,0,0,0,0,0
				C367.1,210.9,366.4,209.4,366,207.5"/>
			<path class="st163" d="M367,186c-0.2,0.3-0.4,0.5-0.4,0.5c0,0.4-0.1,0.7-0.1,1.1c0.1,0,0.2-0.1,0.3-0.1
				C366.9,187.1,367,186.6,367,186 M367.7,182c-1.5,0.8-3.1,1.7-3.2,2c-0.1,0.3-0.2,0.5-0.2,0.7c1.2,0.1,2,0.3,2,0.3l1.1-0.9
				C367.4,183.4,367.6,182.7,367.7,182 M365.4,170.7c-2.1,3.5-4.5,7.8-5.9,11.5c1.9,0.4,3.1,1.2,3.1,1.2l5.3-2.9
				c0.1-0.7,0.2-1.4,0.4-2.2c0.1-0.4,0.2-0.9,0.3-1.4c-0.6-1.4-1.6-2.9-3.1-5.6C365.5,171.3,365.4,171,365.4,170.7"/>
			<path class="st164" d="M366.8,187.6c-0.1,0-0.2,0-0.3,0.1c-0.2,2.2-0.5,3.4-1,4.6c0,0,0.1-0.1,0.1-0.1c0.2-0.2,0.4-0.3,0.6-0.5
				C366.4,190.4,366.6,189.1,366.8,187.6"/>
			<path class="st164" d="M367.3,184.1l-1.1,0.9c0,0-0.8-0.2-2-0.3c-1.1,3.3-3,5-5.6,6.9c0.4-0.3,0.8-0.6,1.2-0.9
				c2.2-1.5,4.5-2.5,6.6-3.1c0-0.3,0.1-0.7,0.1-1.1c0-0.1,0.2-0.3,0.4-0.5C367.1,185.4,367.2,184.8,367.3,184.1"/>
			<path class="st165" d="M366.5,187.7c-2.1,0.6-4.5,1.6-6.6,3.1c-0.4,0.3-0.8,0.6-1.2,0.9c0,0-0.1,0-0.1,0.1
				c-0.1,0.9-0.2,1.9-0.3,2.9c-0.2,1.7-0.5,3.4-0.9,5.2c1.9-2.2,4.5-4.6,8.1-7.6C366.1,191.1,366.3,189.9,366.5,187.7"/>
			<path class="st164" d="M367.9,180.5l-5.3,2.9c0,0-1.2-0.8-3.1-1.2c-0.2,0.6-0.4,1.2-0.5,1.7c0,0.1,0,0.1-0.1,0.2
				c0,0.3,0.1,0.6,0.1,0.9c1.2-0.2,2.3-0.3,3.3-0.3c0.7,0,1.3,0,1.8,0.1c0.1-0.2,0.2-0.5,0.2-0.7c0.1-0.3,1.7-1.2,3.2-2
				C367.8,181.5,367.8,181,367.9,180.5"/>
			<path class="st165" d="M362.4,184.7c-1,0-2.1,0.1-3.3,0.3c0.1,1.7-0.1,3.6-0.5,6.7c0,0,0,0,0.1-0.1c2.6-1.9,4.4-3.6,5.6-6.9
				C363.7,184.7,363.1,184.7,362.4,184.7"/>
			<path class="st166" d="M358.7,191.6C358.7,191.7,358.6,191.7,358.7,191.6L358.7,191.6C358.6,191.7,358.7,191.7,358.7,191.6"/>
			<path class="st167" d="M360.2,208.5c-1.4,0.9-2.8,1.7-4.2,2.4c0.3,1.3,0.6,2.5,1,3.8c0.5,1.6,1.2,2.9,1.9,4
				c-0.3-0.9-0.5-1.8-0.5-2.8v-0.1c0-0.8,0.1-1.7,0.4-2.6C359.3,211.4,359.6,210,360.2,208.5"/>
			<path class="st168" d="M366.3,191.7c-0.2,0.2-0.4,0.3-0.6,0.5c0,0-0.1,0.1-0.1,0.1c-0.7,1.5-2,2.8-4.6,5.8
				c-1.2,1.3-2.5,2.7-4,3.9c-0.4,1.6-0.9,3.2-1.5,4.8c0.1,1.4,0.3,2.8,0.6,4.1c1.4-0.6,2.8-1.4,4.2-2.4c0.7-1.9,2.1-4,5.3-7.7
				C365.5,198.5,365.8,195.5,366.3,191.7"/>
			<path class="st169" d="M365.5,192.2c-3.6,3-6.2,5.4-8.1,7.6c-0.2,0.7-0.3,1.4-0.5,2.1c1.5-1.2,2.8-2.6,4-3.9
				C363.5,195,364.8,193.7,365.5,192.2"/>
			<path class="st170" d="M365.5,204.4c-1.6,1.5-3.5,2.9-5.4,4.1c-0.6,1.5-0.8,2.8-1.4,4.7c-0.3,0.9-0.4,1.8-0.4,2.6v0.1
				c0,1,0.2,2,0.5,2.8c0,0.1,0.1,0.1,0.1,0.2c2.5-2.4,5-6.6,7-11.4C365.8,206.6,365.6,205.6,365.5,204.4"/>
			<path class="st169" d="M365.5,200.9c-3.2,3.7-4.5,5.8-5.3,7.7c1.9-1.2,3.7-2.6,5.4-4.1C365.5,203.4,365.4,202.2,365.5,200.9"/>
			<path class="st166" d="M358.6,191.7c-0.6,0.4-1.2,0.9-1.9,1.3c-0.8,3.6-1.2,6.6-1.4,9.3c0.6-0.8,1.3-1.7,2-2.6
				c0.4-1.8,0.7-3.5,0.9-5.2C358.4,193.5,358.5,192.6,358.6,191.7"/>
			<path class="st165" d="M359,184.1c-0.1,0.3-0.2,0.6-0.3,0.9c0.1,0,0.2,0,0.4-0.1C359.1,184.7,359,184.4,359,184.1"/>
			<path class="st166" d="M359.1,185c-0.1,0-0.2,0-0.4,0.1c-0.8,2.9-1.5,5.6-2,8c0.6-0.4,1.2-0.8,1.9-1.3
				C359,188.6,359.2,186.6,359.1,185"/>
			<path class="st171" d="M358.6,191.7c-0.7,0.5-1.3,0.9-1.9,1.3c0,0,0,0,0,0C357.4,192.6,358,192.1,358.6,191.7
				C358.6,191.7,358.6,191.7,358.6,191.7"/>
			<path class="st172" d="M356.9,201.9c-0.5,0.4-1,0.8-1.6,1.2c0,0.4,0,0.8,0,1.2v0.2c0,0.7,0,1.5,0.1,2.2
				C356,205.2,356.5,203.6,356.9,201.9"/>
			<path class="st171" d="M357.4,199.8c-0.8,0.9-1.5,1.7-2,2.6c0,0.3,0,0.6,0,0.8c0.5-0.4,1.1-0.8,1.6-1.2
				C357.1,201.2,357.3,200.5,357.4,199.8"/>
			<path class="st161" d="M378,182.7c-1.4,1.8-2.9,3.6-3.4,4.4c1.6-0.7,3-1.3,3.9-1.6C378.4,184.4,378.2,183.5,378,182.7
				 M372.3,166.9c-1.5,3.2-3,6.9-3.7,10c0.4,0.9,0.7,1.7,0.9,2.7l0.3-0.2l0.6,1.2c0,0-0.2,0.1-0.6,0.3c0,0.3,0.1,0.7,0.1,1.1
				l1.5-1.3h0l1.1,0.2c0,0-1.2,1.1-2.6,2.3c0.1,1,0.1,2.2,0.2,3.7c1.5-0.2,2.5-0.2,2.6-0.2h0l5.1-5.6
				C376.8,175.5,376,171.9,372.3,166.9"/>
			<path class="st173" d="M377.8,181.1l-5.1,5.6h0c0,0-1,0-2.6,0.2c0,0.4,0,0.9,0.1,1.4c0,0.3,0,0.6,0,0.9c1.5-0.8,3-1.5,4.4-2.1
				c0.6-0.8,2-2.6,3.4-4.4C378,182.1,377.9,181.6,377.8,181.1"/>
			<path class="st173" d="M371.4,180.7L371.4,180.7l-1.5,1.3c0,0.4,0.1,0.8,0.1,1.2c1.3-1.2,2.6-2.3,2.6-2.3L371.4,180.7"/>
			<path class="st173" d="M369.8,179.5L369.8,179.5l-0.3,0.2c0.1,0.4,0.2,0.9,0.2,1.4c0.4-0.2,0.6-0.3,0.6-0.3L369.8,179.5"/>
			<path class="st162" d="M375.3,217.7c-0.2,0.2-0.4,0.4-0.6,0.6c-0.1,0.1-0.8,1.1-1.9,2.3c0.1,0.1,0.3,0.2,0.4,0.3
				C374.1,219.9,374.7,218.8,375.3,217.7"/>
			<path class="st162" d="M379.7,192.2c-0.7,3.1-2.2,5.6-4.3,10.3c-3,6.9-6,8.4-7.7,10.3c0.2,0.4,0.3,0.9,0.5,1.4
				c0.6,1.7,1.3,3,2.3,4.2c1.2-4.7,3-9,5.2-14c2.5-5.8,2.9-7.2,4.3-9.1C379.9,194.3,379.8,193.3,379.7,192.2"/>
			<path class="st174" d="M379.9,195.2c-1.3,1.9-1.7,3.4-4.3,9.1c-2.2,5-4,9.3-5.2,14c0.7,0.9,1.5,1.6,2.4,2.2
				c1-1.2,1.7-2.1,1.9-2.3c0.2-0.2,0.4-0.4,0.6-0.6c2.3-4.7,3.1-10.7,3.1-11.1C378.8,203.9,380.1,200.9,379.9,195.2"/>
			<path class="st162" d="M378.5,185.4c-0.9,0.4-2.3,0.9-3.9,1.6c-0.1,0.2-0.2,0.4-0.2,0.4c-0.2,2.1-0.3,3.4-0.5,4.4
				c1.4-1.3,3.3-2.6,5.1-3.7c0,0,0,0,0,0C378.9,187.2,378.7,186.3,378.5,185.4"/>
			<path class="st175" d="M374.6,187.1c-1.4,0.6-2.9,1.4-4.4,2.1c0,0,0,0.1,0,0.1v0.2c0,2.1-0.3,4.5-0.8,7c1.1-1.2,2.4-2.5,3.8-4
				c0.2-0.2,0.5-0.4,0.7-0.7c0.2-1,0.3-2.3,0.5-4.4C374.4,187.4,374.5,187.3,374.6,187.1"/>
			<path class="st174" d="M379.1,188.2c-1.9,1.1-3.7,2.4-5.1,3.7c-0.3,2-1,3-3.6,7.2c-0.6,0.9-1.4,1.9-2.3,3c-0.6,1.8-1.2,3.7-2,5.5
				c0.4,1.8,1,3.3,1.8,5.3c1.7-1.9,4.7-3.4,7.7-10.3c2-4.7,3.6-7.2,4.3-10.3C379.6,191,379.4,189.6,379.1,188.2"/>
			<path class="st176" d="M373.9,191.9c-0.2,0.2-0.5,0.4-0.7,0.7c-1.4,1.5-2.7,2.8-3.8,4c-0.4,1.8-0.9,3.7-1.4,5.5
				c0.9-1,1.7-2,2.3-3C372.9,194.9,373.6,193.9,373.9,191.9"/>
			<path class="st173" d="M369.9,183.3c-1.1,1-2.3,2.1-2.9,2.8c-0.1,0.5-0.2,1-0.2,1.5c1.2-0.3,2.4-0.5,3.3-0.7
				C370,185.5,370,184.3,369.9,183.3 M369.7,181c-0.5,0.3-1.3,0.6-2,1c-0.1,0.7-0.2,1.4-0.3,2.1l2.5-2.1
				C369.8,181.7,369.7,181.3,369.7,181 M368.6,176.9c-0.1,0.5-0.2,0.9-0.3,1.4c-0.1,0.7-0.2,1.5-0.4,2.2l1.5-0.9
				C369.3,178.6,369,177.8,368.6,176.9"/>
			<path class="st177" d="M370.1,186.9c-0.9,0.1-2.1,0.3-3.3,0.7c-0.2,1.5-0.4,2.8-0.6,4.1c1.1-0.9,2.5-1.7,4-2.5c0-0.3,0-0.6,0-0.9
				C370.2,187.8,370.1,187.4,370.1,186.9"/>
			<path class="st177" d="M369.8,182l-2.5,2.1c-0.1,0.7-0.2,1.3-0.3,1.9c0.6-0.7,1.8-1.8,2.9-2.8C369.9,182.8,369.8,182.4,369.8,182
				"/>
			<path class="st177" d="M369.5,179.6l-1.5,0.9c-0.1,0.5-0.2,1-0.3,1.6c0.8-0.4,1.5-0.8,2-1C369.6,180.5,369.6,180,369.5,179.6"/>
			<path class="st178" d="M370.2,189.2c-1.4,0.8-2.8,1.6-4,2.5c-0.5,3.9-0.7,6.8-0.8,9.2c1.1-1.2,2.4-2.7,3.9-4.3
				c0.5-2.5,0.8-4.9,0.8-7L370.2,189.2C370.2,189.3,370.2,189.2,370.2,189.2"/>
			<path class="st178" d="M368,202.1c-0.7,0.8-1.5,1.6-2.4,2.4c0.1,1.2,0.3,2.2,0.5,3.1C366.7,205.8,367.4,203.9,368,202.1"/>
			<path class="st179" d="M369.4,196.5c-1.6,1.6-2.8,3.1-3.9,4.3c0,1.4,0,2.5,0.1,3.6c0.9-0.8,1.7-1.6,2.4-2.4
				C368.5,200.2,369,198.3,369.4,196.5"/>
		</g>
	</g>
</g>
<g id="TUM_Universittsstiftung">
	<path class="st180" d="M714.8,88.9c-4.4,0-8.1,3.6-8.1,8.1c0,4.4,3.6,8.1,8.1,8.1c4.5,0,8.1-3.6,8.1-8.1
		C722.9,92.6,719.3,88.9,714.8,88.9"/>
	<path class="st180" d="M714.8,144.8c-3.6,0-6.6,3-6.6,6.6c0,3.6,2.9,6.6,6.6,6.6c3.6,0,6.6-3,6.6-6.6
		C721.4,147.8,718.5,144.8,714.8,144.8"/>
	<path class="st180" d="M781.5,107.8c-6,0-10.9,4.9-10.9,10.9c0,6,4.9,10.9,10.9,10.9c6,0,10.9-4.9,10.9-10.9
		C792.5,112.7,787.6,107.8,781.5,107.8"/>
	<path class="st181" d="M741.5,101.4c-3.6,0-6.5,2.9-6.5,6.5c0,3.6,2.9,6.5,6.5,6.5c3.6,0,6.5-2.9,6.5-6.5
		C747.9,104.3,745.1,101.4,741.5,101.4"/>
	<path class="st181" d="M701.5,134.6c-3.3,0-5.9,2.7-5.9,5.9c0,3.3,2.7,5.9,5.9,5.9c3.3,0,5.9-2.7,5.9-5.9
		C707.4,137.3,704.7,134.6,701.5,134.6"/>
	<path class="st181" d="M794.9,129.6c-6,0-10.9,4.9-10.9,10.9c0,6,4.9,10.9,10.9,10.9c6,0,10.9-4.9,10.9-10.9
		C805.7,134.5,800.8,129.6,794.9,129.6"/>
	<path class="st182" d="M782,205.5c-1.1-0.4-2.2-1.1-3.4-2c-4-3-10.7-8.4-16.1-8.4c-1.2,0-3.6,0.6-4.6,1.3c0-3.5-0.1-6.1,0.2-8.3
		c0.1-0.5,0.4-1.7,1.3-2.7c1-1,2.3-1,3.9-1c1.1,0,2.4,0.3,4,0.9c1.1,0.4,2.2,0.6,3.3,0.6c3.6,0,7-2.2,9.2-5.4c0.2,0,0.4,0,0.6,0
		c5.2,0,9.7-0.9,13.5-2.4v12.4c0,3.7-0.8,7.4-2.2,10.3c-1-0.7-2.2-1.1-3.5-1.1C785,199.8,782.3,202.3,782,205.5 M755.4,189.9v-23.5
		h7C759.7,175.2,756.6,183.3,755.4,189.9 M755.4,148.2h11.3c-0.8,5.8-2.3,11.7-4,17.2h-7.3V148.2z M755.4,130.1h11.8v10.4
		c0,2.3-0.1,4.5-0.4,6.8h-11.4V130.1z M755.4,112h11.8v17.2h-11.8V112z M755.4,93.9h8.4c1.8,3.2,3.5,5.6,3.5,9.5v7.7h-11.8V93.9z
		 M755.4,75.8h3.6c0.3,8.9,2.4,13.7,4.3,17.2h-7.9V75.8z M767.2,75.8V93h-1.7c-2.1-3.6-4.7-8.2-5.1-17.2H767.2z M767.2,96.3
		c-0.3-0.8-0.7-1.6-1.2-2.4h1.2V96.3z M778,180.5c-1.9,2.5-4.6,4-7.4,4c-0.9,0-1.9-0.2-2.8-0.5c-1.7-0.7-3.2-1-4.5-1
		c-1.2,0-2.2,0.3-3,0.8c0.1-0.3,0.2-0.7,0.4-1c1.1-2.3,2.8-2.9,6.7-3c2.2,0,5.1,0.3,8.7,0.6C776.7,180.5,777.4,180.5,778,180.5
		 M776.2,179c-3.6-0.3-6.4-0.6-8.8-0.6c-3.9,0-6.6,0.8-8,3.8c-0.2,0.4,2.4-6.7,4.9-15.9h16.3v6.8c0,2.2-0.6,4.2-1.6,5.9
		C778.1,179.1,777.1,179,776.2,179 M768.1,148.2h12.4v17.2h-16C766,160,767.4,153.9,768.1,148.2 M768.7,140.5v-10.4h11.9v17.2h-12.3
		C768.5,145,768.7,142.6,768.7,140.5 M768.7,112h4.3c0.2-0.3,0.5-0.6,0.7-0.9h-5V93.9h11.9v14c0.3,0,0.6-0.1,0.9-0.1
		c0.2,0,0.4,0,0.5,0.1v-14h5.4c0.3,5.5,0.9,11.3,1.6,17c0.7,0.7,1.3,1.4,1.8,2.3c-0.1-0.4-0.1-0.8-0.2-1.1h3.2v17.2h-0.6
		c-0.4-2.5-0.8-5.1-1.2-7.7c-0.2,0.9-0.6,1.8-1.1,2.6c0.3,1.7,0.5,3.5,0.8,5.1h-7.3c-1,0.3-2,0.5-3,0.5c-1,0-2-0.2-3-0.5h-9.8V112z
		 M768.7,84.1c0-3.5,0.9-5.7,2.2-8.4h9.7V93h-11.9V84.1z M768.7,75.8h0.5c-0.2,0.4-0.4,0.8-0.5,1.3V75.8z M782.1,75.8h5.3v12.7
		c0,1.5,0,3,0.1,4.6h-5.4V75.8z M788.8,75.8h5.1V93h-5c-0.1-1.6-0.1-3.1-0.1-4.6V75.8z M793.9,111.1h-3.3
		c-0.8-5.8-1.4-11.6-1.6-17.2h5V111.1z M794.9,129.6c1,0,2,0.2,3,0.5h14.3c0.1,2,0.2,4.1,0.2,6.2c0,3.8-0.2,7.5-0.6,11h-8.4
		c-0.2,0.3-0.5,0.6-0.7,0.9h9c-0.8,6.4-2.5,12.3-5.3,17.2h-10.8v-14.1c-0.2,0-0.4,0.1-0.6,0.1c-0.3,0-0.6-0.1-0.9-0.1v14.1h-11.9
		v-17.2h5.1c-0.3-0.3-0.5-0.6-0.7-0.9h-4.4v-17.2h9.8C792.8,129.8,793.8,129.6,794.9,129.6 M795.4,112h14.9
		c0.7,5.3,1.4,11.2,1.7,17.2h-16.7V112z M795.4,93.9h12.2c0.5,4,1.6,10.1,2.6,17.2h-14.8V93.9z M795.4,175.9v-9.6h10.3
		C803.2,170.4,799.9,173.7,795.4,175.9 M793.9,176.6c-3.7,1.6-8.1,2.5-13.3,2.5c0.9-1.8,1.4-3.8,1.4-6v-6.8h11.9V176.6z M753.9,93
		H742V75.8h11.9V93z M753.9,111.1H747c-0.2,0.3-0.4,0.6-0.6,0.9h7.5v17.2H742V125c3.2-0.3,5.7-2.9,5.7-6.2c0-2.3-1.2-4.2-3-5.3
		c-1,0.6-2,0.9-3.2,0.9c-1.2,0-2.3-0.3-3.2-0.9c-1.8,1.1-3,3.1-3,5.3c0,3.1,2.3,5.7,5.3,6.2v4.3h-11.9c0.1-3.3,0.8-9.5,1.7-17.2h6.1
		c-0.2-0.3-0.4-0.6-0.6-0.9h-5.4c0.7-5.3,1.4-11.2,2.1-17.2h7.9v7.6c0.3,0,0.6-0.1,0.9-0.1c0.2,0,0.4,0,0.6,0.1v-7.6h11.9V111.1z
		 M753.9,147.3H742v-17.2h11.9V147.3z M753.9,165.5H742v-17.2h11.9V165.5z M753.9,191.4c0-0.4-0.1-0.7-0.2-1.1
		c-0.3-1.5-0.7-2.9-1.2-3.9c0,0,0,0,0-0.1c-0.1-0.2-0.2-0.3-0.3-0.5c-0.1-0.6-0.2-1.2-0.4-1.7c-0.4-1.5-1.3-2.8-2.6-3.6
		c-1.5-4.9-3.9-9.8-6.9-14.1h11.6V191.4z M748.7,186.8c-1.3-1.2-3-1.6-4.9-1.7c0.1-0.4,0.3-0.9,0.5-1.2l0.8-1.4
		c0.6-0.8,1.3-1.2,2.2-1.2c0.1,0,0.1,0,0.2,0c0.4,0.5,0.8,1,1.2,1.6c0,0.1,0,0.1,0.1,0.2l0.4,1.7c0.3,1.1,0.5,2.2,0.7,3.3
		C749.5,187.7,749.1,187.2,748.7,186.8 M742,175.9v-7.3c2.2,3.4,4,7.1,5.3,10.9C745.9,178.1,744.1,176.8,742,175.9 M742,179.1v-1.5
		c1.5,0.7,2.7,1.6,3.8,2.6c-1.1,0.3-2,1-2.6,1.9C742.5,181.6,742.1,180.8,742,179.1 M742,185.2c-3.9,0.2-8.6,1.6-12.9,2.7
		c-0.2-2.4-0.3-4.8-0.3-6.7v-6.6c4.8,0.1,8.7,0.9,11.9,2.1v2.2c0,2.3,0.8,3.6,2.1,4.3C742.3,183.9,742.1,184.5,742,185.2
		 M740.9,191.3c-0.7,5.5-1.6,10.5-4.4,10.2c0,0-0.1,0-0.1,0c-3.1,0-5.1-3-6.2-7.3c-0.4-1.6-0.7-3.2-0.9-4.9
		c4.3-1.1,8.8-2.4,12.4-2.7C741.3,188.2,741.1,189.8,740.9,191.3 M728.7,166.4h11.8c0,0,0,0,0,0v8.9c-3.2-1.3-7.1-2-11.9-2V166.4z
		 M728.7,155.8c4.3,2.4,8,5.7,11.1,9.7h-11.1V155.8z M728.7,148.2h11.9V164c-3.3-4.1-7.2-7.5-11.9-9.9V148.2z M728.7,130.1h11.9
		v17.2h-11.9V130.1z M728.7,112h0.2c-0.1,0.7-0.2,1.3-0.2,1.9V112z M728.7,93.9h2.5c-0.7,6-1.5,11.9-2.1,17.2h-0.3V93.9z
		 M728.7,75.8h4.3c-0.5,5.6-1.1,11.4-1.8,17.2h-2.6V75.8z M734.5,75.8h6.1V93h-7.8C733.4,87.2,734,81.3,734.5,75.8 M720.8,189.3
		c-3.5-0.1-5.4-1.1-5.5-5.5v-8c4.5-0.7,8.4-1.1,11.9-1.1v6.6c0,2,0.1,4.4,0.4,7C725.1,188.9,722.8,189.3,720.8,189.3 M727.2,166.4
		v6.8c-3.5,0-7.4,0.4-11.9,1.1v-7.9H727.2z M713.9,157.9v7.6h-20.1c-0.9-1.6-1.8-3.3-2.5-5.3c-1.3-3.5-2.3-7.6-3-12h18.5
		c0.5,0.7,1.1,1.2,1.7,1.7c0.1-0.5,0.3-1,0.6-1.5c-0.1-0.1-0.2-0.1-0.3-0.2h0.4c0.2-0.3,0.4-0.6,0.6-0.9h-1.8
		c-0.7-0.9-1.3-1.9-1.9-3.1c-0.3,0.4-0.7,0.8-1.1,1.1c0.4,0.7,0.7,1.4,1.2,2h-17.9c-0.8-5.4-1.2-11.2-1.3-17.2h14.2
		c0.2,1.5,0.3,3,0.6,4.5c0.5,0,1.1,0.1,1.6,0.3c-0.3-1.6-0.5-3.2-0.7-4.8h5.9c0.2,3,2.5,5.4,5.4,5.9v8.9c0.3,0,0.6-0.1,1-0.1
		c0.2,0,0.3,0,0.5,0.1v-8.8c3.2-0.3,5.7-2.8,5.9-5.9h6v17.2H720c0.2,0.3,0.4,0.6,0.6,0.9h6.7v5.2c-1.8-0.8-3.8-1.5-5.8-1.9
		c0,0.5-0.1,1-0.2,1.5c2.1,0.5,4.1,1.2,6,2.1v10.4h-11.9v-7.5c-0.2,0-0.3,0.1-0.5,0.1C714.5,158,714.2,157.9,713.9,157.9
		 M713.9,174.5c-1.4,0.2-2.8,0.3-4.1,0.3c-7.1,0-12-3.2-15.5-8.5h19.6V174.5z M686.8,126.3c0-4.7,0.1-9.5,0.3-14.3h13.4v6.8
		c0,2.7,0.1,6.4,0.5,10.4h-14.1C686.8,128.2,686.8,127.2,686.8,126.3 M688.1,93.9h12.4v17.2h-13.3
		C687.5,105.1,687.8,99.3,688.1,93.9 M702,112h11.9v11.3c-3,0.5-5.3,2.9-5.5,6h-5.9c-0.4-3.9-0.5-7.6-0.5-10.4V112z M727.2,112v17.2
		h-6c-0.2-3.2-2.7-5.8-5.9-6V112H727.2z M702,93.9h5.4c0.1-0.3,0.3-0.6,0.5-0.9H702V75.8h6.3c1.3,6.8,3.5,9.9,4.7,13.4
		c0.6-0.1,1.2-0.2,1.9-0.2c0.2,0,0.3,0,0.5,0.1V75.8h11.9V93h-5.4c0.2,0.3,0.3,0.6,0.5,0.9h4.9v17.2h-11.9V105
		c-0.2,0-0.3,0.1-0.5,0.1c-0.3,0-0.6-0.1-1-0.1v6.1H702V93.9z M713.9,75.8v11.6c-1.3-3.1-3-6-4.1-11.6H713.9z M794.5,206.1
		c0-1.6-0.6-3.1-1.6-4.2c1.7-3.2,2.5-7.3,2.5-11.3v-13.1c5.2-2.4,9.1-6.2,11.9-10.8c0.1-0.1,0.1-0.3,0.2-0.4h5.9v-0.9h-5.4
		c2.7-5,4.3-10.9,5.1-17.2h4.2v-0.9h-4.1c0.4-3.6,0.6-7.3,0.6-11c0-2.1-0.1-4.1-0.2-6.2h3.6v-0.9h-3.7c-0.3-6-1-11.9-1.7-17.2h5.4
		v-0.9h-5.5c-1-7.2-2.1-13.3-2.6-17.2h5.3V93H809c-0.1-0.9-0.2-1.7-0.2-2.3l-0.7-2.2l-0.7,2.2c0,0.1,0,0.3,0,0.5l0,0h0
		c0,0.5,0.1,1.1,0.1,1.8h-12.1V75.8h6.4v-0.9h-6.4v-2.5l-0.7-2.2l-0.7,2.2v2.5h-5.1V63.4l-0.7-2.3l-0.8,2.3v11.5h-5.3V62.8l-0.7-2.2
		l-0.7,2.2v12.1h-9.3c3.7-7.6,4-14.5,4-21.6l-0.8-2.2l-0.7,2.2c0,12.4-2.3,17.5-4.2,21.6h-0.9V51.5l-0.7-2.2l-0.7,2.2v23.3h-6.8
		c0-5.1-0.1-22.2-0.1-22.2c0-0.2-0.7-1.8-0.7-1.8s-0.8,1.6-0.8,1.8c0,0-0.1,4.2,0,8.8v11.1c0,0.8,0,1.6,0,2.3h-3.5V45l-0.7-2.2
		l-0.7,2.2v29.8H742V27.2l-0.7-2.2l-0.7,2.2v47.7h-6c0.4-5.4,0.7-10.4,0.7-14.7V40.3v0c0-0.2-0.7-1.8-0.7-1.8s-0.7,1.6-0.7,1.8v19.9
		c0,4.3-0.3,9.3-0.7,14.7h-4.4v-3.6h0c0-0.1,0-0.1,0-0.2V46l-0.7-2.2l-0.7,2.2v16c-1.2-3.6-2.6-6.3-2.5-10.3l-0.7-2.2l-0.7,2.2
		c0,0.2,0,0.3,0,0.5l0,0h0c0.2,7.1,4,10.1,4,19.1h0v3.6h-11.9V56l-0.7-2.2l-0.7,2.2v18.9h-4.3c-0.5-2.9-0.8-6.6-0.8-11.3l-0.7-2.2
		l-0.7,2.2c0,4.7,0.3,8.3,0.8,11.3H702v-8.4l-0.7-2.2l-0.7,2.2v8.4h-6.4v0.9h6.4V93h-12.4c0.3-5.1,0.5-9.8,0.5-13.8l-0.7-2.2
		l-0.7,2.2c0,4-0.2,8.6-0.5,13.8h-3.9v0.9h3.9c-0.3,5.4-0.7,11.2-0.9,17.2h-3v0.9h2.9c-0.2,4.7-0.3,9.5-0.3,14.3c0,1,0,2,0,3h-2.6
		v0.9h2.6c0.1,6,0.5,11.8,1.3,17.2h-3.9v0.9h4c0.7,4.5,1.7,8.8,3.1,12.5c0.6,1.7,1.4,3.3,2.2,4.7h-4v0.9h4.6c3.7,6.1,9.3,10,17.2,10
		c1.3,0,2.6-0.1,4.1-0.3v7.8c0,2.5,0.7,4.3,2,5.5c1.3,1.1,3,1.5,5,1.5c2.1,0,4.4-0.5,6.9-1c0.2,1.7,0.5,3.4,1,4.9
		c1.2,4.4,3.4,8.3,7.7,8.4v0c4.7-0.3,5.1-6.2,5.9-11.5c0.2-1.8,0.5-3.4,0.8-4.9c3.8,0.2,8.7,5,8.8,10.1V275h6v-76.9
		c0.9-1,3.3-1.5,4.6-1.5c4.4-0.1,11.3,5.1,15.2,8.1c1.5,1.2,3,1.9,4.3,2.4c0.5,3,3,5.3,6.1,5.3C791.7,212.3,794.5,209.5,794.5,206.1
		"/>
</g>
<g id="TUM">
	<g>
		<defs>
			<rect id="SVGID_77_" x="925" y="84.9" width="250" height="130.1"/>
		</defs>
		<clipPath id="SVGID_78_">
			<use xlink:href="#SVGID_77_"  style="overflow:visible;"/>
		</clipPath>
		<polygon class="st183" points="1048.3,84.9 1048.3,191.1 1020.9,191.1 1020.9,84.9 925,84.9 925,108.9 949,108.9 949,215.1 
			972.9,215.1 972.9,108.9 996.9,108.9 996.9,215.1 1072.3,215.1 1072.3,108.9 1099.7,108.9 1099.7,215.1 1123.6,215.1 
			1123.6,108.9 1151,108.9 1151,215.1 1175,215.1 1175,84.9 		"/>
	</g>
</g>
</svg>
